<?xml version="1.0" encoding="utf-8" standalone="no"?>
<!DOCTYPE svg PUBLIC "-//W3C//DTD SVG 1.1//EN"
  "http://www.w3.org/Graphics/SVG/1.1/DTD/svg11.dtd">
<!-- Created with matplotlib (https://matplotlib.org/) -->
<svg height="345.6pt" version="1.1" viewBox="0 0 460.8 345.6" width="460.8pt" xmlns="http://www.w3.org/2000/svg" xmlns:xlink="http://www.w3.org/1999/xlink">
 <defs>
  <style type="text/css">
*{stroke-linecap:butt;stroke-linejoin:round;}
  </style>
 </defs>
 <g id="figure_1">
  <g id="patch_1">
   <path d="M 0 345.6 
L 460.8 345.6 
L 460.8 0 
L 0 0 
z
" style="fill:#ffffff;"/>
  </g>
  <g id="axes_1">
   <g id="patch_2">
    <path d="M 57.6 307.584 
L 414.72 307.584 
L 414.72 41.472 
L 57.6 41.472 
z
" style="fill:#ffffff;"/>
   </g>
   <g id="matplotlib.axis_1">
    <g id="xtick_1">
     <g id="line2d_1">
      <defs>
       <path d="M 0 0 
L 0 3.5 
" id="m0cba959443" style="stroke:#000000;stroke-width:0.8;"/>
      </defs>
      <g>
       <use style="stroke:#000000;stroke-width:0.8;" x="73.832727" xlink:href="#m0cba959443" y="307.584"/>
      </g>
     </g>
     <g id="text_1">
      <!-- 0 -->
      <defs>
       <path d="M 31.78125 66.40625 
Q 24.171875 66.40625 20.328125 58.90625 
Q 16.5 51.421875 16.5 36.375 
Q 16.5 21.390625 20.328125 13.890625 
Q 24.171875 6.390625 31.78125 6.390625 
Q 39.453125 6.390625 43.28125 13.890625 
Q 47.125 21.390625 47.125 36.375 
Q 47.125 51.421875 43.28125 58.90625 
Q 39.453125 66.40625 31.78125 66.40625 
z
M 31.78125 74.21875 
Q 44.046875 74.21875 50.515625 64.515625 
Q 56.984375 54.828125 56.984375 36.375 
Q 56.984375 17.96875 50.515625 8.265625 
Q 44.046875 -1.421875 31.78125 -1.421875 
Q 19.53125 -1.421875 13.0625 8.265625 
Q 6.59375 17.96875 6.59375 36.375 
Q 6.59375 54.828125 13.0625 64.515625 
Q 19.53125 74.21875 31.78125 74.21875 
z
" id="DejaVuSans-48"/>
      </defs>
      <g transform="translate(70.651477 322.182437)scale(0.1 -0.1)">
       <use xlink:href="#DejaVuSans-48"/>
      </g>
     </g>
    </g>
    <g id="xtick_2">
     <g id="line2d_2">
      <g>
       <use style="stroke:#000000;stroke-width:0.8;" x="114.526453" xlink:href="#m0cba959443" y="307.584"/>
      </g>
     </g>
     <g id="text_2">
      <!-- 500 -->
      <defs>
       <path d="M 10.796875 72.90625 
L 49.515625 72.90625 
L 49.515625 64.59375 
L 19.828125 64.59375 
L 19.828125 46.734375 
Q 21.96875 47.46875 24.109375 47.828125 
Q 26.265625 48.1875 28.421875 48.1875 
Q 40.625 48.1875 47.75 41.5 
Q 54.890625 34.8125 54.890625 23.390625 
Q 54.890625 11.625 47.5625 5.09375 
Q 40.234375 -1.421875 26.90625 -1.421875 
Q 22.3125 -1.421875 17.546875 -0.640625 
Q 12.796875 0.140625 7.71875 1.703125 
L 7.71875 11.625 
Q 12.109375 9.234375 16.796875 8.0625 
Q 21.484375 6.890625 26.703125 6.890625 
Q 35.15625 6.890625 40.078125 11.328125 
Q 45.015625 15.765625 45.015625 23.390625 
Q 45.015625 31 40.078125 35.4375 
Q 35.15625 39.890625 26.703125 39.890625 
Q 22.75 39.890625 18.8125 39.015625 
Q 14.890625 38.140625 10.796875 36.28125 
z
" id="DejaVuSans-53"/>
      </defs>
      <g transform="translate(104.982703 322.182437)scale(0.1 -0.1)">
       <use xlink:href="#DejaVuSans-53"/>
       <use x="63.623047" xlink:href="#DejaVuSans-48"/>
       <use x="127.246094" xlink:href="#DejaVuSans-48"/>
      </g>
     </g>
    </g>
    <g id="xtick_3">
     <g id="line2d_3">
      <g>
       <use style="stroke:#000000;stroke-width:0.8;" x="155.220179" xlink:href="#m0cba959443" y="307.584"/>
      </g>
     </g>
     <g id="text_3">
      <!-- 1000 -->
      <defs>
       <path d="M 12.40625 8.296875 
L 28.515625 8.296875 
L 28.515625 63.921875 
L 10.984375 60.40625 
L 10.984375 69.390625 
L 28.421875 72.90625 
L 38.28125 72.90625 
L 38.28125 8.296875 
L 54.390625 8.296875 
L 54.390625 0 
L 12.40625 0 
z
" id="DejaVuSans-49"/>
      </defs>
      <g transform="translate(142.495179 322.182437)scale(0.1 -0.1)">
       <use xlink:href="#DejaVuSans-49"/>
       <use x="63.623047" xlink:href="#DejaVuSans-48"/>
       <use x="127.246094" xlink:href="#DejaVuSans-48"/>
       <use x="190.869141" xlink:href="#DejaVuSans-48"/>
      </g>
     </g>
    </g>
    <g id="xtick_4">
     <g id="line2d_4">
      <g>
       <use style="stroke:#000000;stroke-width:0.8;" x="195.913905" xlink:href="#m0cba959443" y="307.584"/>
      </g>
     </g>
     <g id="text_4">
      <!-- 1500 -->
      <g transform="translate(183.188905 322.182437)scale(0.1 -0.1)">
       <use xlink:href="#DejaVuSans-49"/>
       <use x="63.623047" xlink:href="#DejaVuSans-53"/>
       <use x="127.246094" xlink:href="#DejaVuSans-48"/>
       <use x="190.869141" xlink:href="#DejaVuSans-48"/>
      </g>
     </g>
    </g>
    <g id="xtick_5">
     <g id="line2d_5">
      <g>
       <use style="stroke:#000000;stroke-width:0.8;" x="236.607631" xlink:href="#m0cba959443" y="307.584"/>
      </g>
     </g>
     <g id="text_5">
      <!-- 2000 -->
      <defs>
       <path d="M 19.1875 8.296875 
L 53.609375 8.296875 
L 53.609375 0 
L 7.328125 0 
L 7.328125 8.296875 
Q 12.9375 14.109375 22.625 23.890625 
Q 32.328125 33.6875 34.8125 36.53125 
Q 39.546875 41.84375 41.421875 45.53125 
Q 43.3125 49.21875 43.3125 52.78125 
Q 43.3125 58.59375 39.234375 62.25 
Q 35.15625 65.921875 28.609375 65.921875 
Q 23.96875 65.921875 18.8125 64.3125 
Q 13.671875 62.703125 7.8125 59.421875 
L 7.8125 69.390625 
Q 13.765625 71.78125 18.9375 73 
Q 24.125 74.21875 28.421875 74.21875 
Q 39.75 74.21875 46.484375 68.546875 
Q 53.21875 62.890625 53.21875 53.421875 
Q 53.21875 48.921875 51.53125 44.890625 
Q 49.859375 40.875 45.40625 35.40625 
Q 44.1875 33.984375 37.640625 27.21875 
Q 31.109375 20.453125 19.1875 8.296875 
z
" id="DejaVuSans-50"/>
      </defs>
      <g transform="translate(223.882631 322.182437)scale(0.1 -0.1)">
       <use xlink:href="#DejaVuSans-50"/>
       <use x="63.623047" xlink:href="#DejaVuSans-48"/>
       <use x="127.246094" xlink:href="#DejaVuSans-48"/>
       <use x="190.869141" xlink:href="#DejaVuSans-48"/>
      </g>
     </g>
    </g>
    <g id="xtick_6">
     <g id="line2d_6">
      <g>
       <use style="stroke:#000000;stroke-width:0.8;" x="277.301357" xlink:href="#m0cba959443" y="307.584"/>
      </g>
     </g>
     <g id="text_6">
      <!-- 2500 -->
      <g transform="translate(264.576357 322.182437)scale(0.1 -0.1)">
       <use xlink:href="#DejaVuSans-50"/>
       <use x="63.623047" xlink:href="#DejaVuSans-53"/>
       <use x="127.246094" xlink:href="#DejaVuSans-48"/>
       <use x="190.869141" xlink:href="#DejaVuSans-48"/>
      </g>
     </g>
    </g>
    <g id="xtick_7">
     <g id="line2d_7">
      <g>
       <use style="stroke:#000000;stroke-width:0.8;" x="317.995083" xlink:href="#m0cba959443" y="307.584"/>
      </g>
     </g>
     <g id="text_7">
      <!-- 3000 -->
      <defs>
       <path d="M 40.578125 39.3125 
Q 47.65625 37.796875 51.625 33 
Q 55.609375 28.21875 55.609375 21.1875 
Q 55.609375 10.40625 48.1875 4.484375 
Q 40.765625 -1.421875 27.09375 -1.421875 
Q 22.515625 -1.421875 17.65625 -0.515625 
Q 12.796875 0.390625 7.625 2.203125 
L 7.625 11.71875 
Q 11.71875 9.328125 16.59375 8.109375 
Q 21.484375 6.890625 26.8125 6.890625 
Q 36.078125 6.890625 40.9375 10.546875 
Q 45.796875 14.203125 45.796875 21.1875 
Q 45.796875 27.640625 41.28125 31.265625 
Q 36.765625 34.90625 28.71875 34.90625 
L 20.21875 34.90625 
L 20.21875 43.015625 
L 29.109375 43.015625 
Q 36.375 43.015625 40.234375 45.921875 
Q 44.09375 48.828125 44.09375 54.296875 
Q 44.09375 59.90625 40.109375 62.90625 
Q 36.140625 65.921875 28.71875 65.921875 
Q 24.65625 65.921875 20.015625 65.03125 
Q 15.375 64.15625 9.8125 62.3125 
L 9.8125 71.09375 
Q 15.4375 72.65625 20.34375 73.4375 
Q 25.25 74.21875 29.59375 74.21875 
Q 40.828125 74.21875 47.359375 69.109375 
Q 53.90625 64.015625 53.90625 55.328125 
Q 53.90625 49.265625 50.4375 45.09375 
Q 46.96875 40.921875 40.578125 39.3125 
z
" id="DejaVuSans-51"/>
      </defs>
      <g transform="translate(305.270083 322.182437)scale(0.1 -0.1)">
       <use xlink:href="#DejaVuSans-51"/>
       <use x="63.623047" xlink:href="#DejaVuSans-48"/>
       <use x="127.246094" xlink:href="#DejaVuSans-48"/>
       <use x="190.869141" xlink:href="#DejaVuSans-48"/>
      </g>
     </g>
    </g>
    <g id="xtick_8">
     <g id="line2d_8">
      <g>
       <use style="stroke:#000000;stroke-width:0.8;" x="358.688809" xlink:href="#m0cba959443" y="307.584"/>
      </g>
     </g>
     <g id="text_8">
      <!-- 3500 -->
      <g transform="translate(345.963809 322.182437)scale(0.1 -0.1)">
       <use xlink:href="#DejaVuSans-51"/>
       <use x="63.623047" xlink:href="#DejaVuSans-53"/>
       <use x="127.246094" xlink:href="#DejaVuSans-48"/>
       <use x="190.869141" xlink:href="#DejaVuSans-48"/>
      </g>
     </g>
    </g>
    <g id="xtick_9">
     <g id="line2d_9">
      <g>
       <use style="stroke:#000000;stroke-width:0.8;" x="399.382535" xlink:href="#m0cba959443" y="307.584"/>
      </g>
     </g>
     <g id="text_9">
      <!-- 4000 -->
      <defs>
       <path d="M 37.796875 64.3125 
L 12.890625 25.390625 
L 37.796875 25.390625 
z
M 35.203125 72.90625 
L 47.609375 72.90625 
L 47.609375 25.390625 
L 58.015625 25.390625 
L 58.015625 17.1875 
L 47.609375 17.1875 
L 47.609375 0 
L 37.796875 0 
L 37.796875 17.1875 
L 4.890625 17.1875 
L 4.890625 26.703125 
z
" id="DejaVuSans-52"/>
      </defs>
      <g transform="translate(386.657535 322.182437)scale(0.1 -0.1)">
       <use xlink:href="#DejaVuSans-52"/>
       <use x="63.623047" xlink:href="#DejaVuSans-48"/>
       <use x="127.246094" xlink:href="#DejaVuSans-48"/>
       <use x="190.869141" xlink:href="#DejaVuSans-48"/>
      </g>
     </g>
    </g>
    <g id="text_10">
     <!-- P(It = i) -->
     <defs>
      <path d="M 19.671875 64.796875 
L 19.671875 37.40625 
L 32.078125 37.40625 
Q 38.96875 37.40625 42.71875 40.96875 
Q 46.484375 44.53125 46.484375 51.125 
Q 46.484375 57.671875 42.71875 61.234375 
Q 38.96875 64.796875 32.078125 64.796875 
z
M 9.8125 72.90625 
L 32.078125 72.90625 
Q 44.34375 72.90625 50.609375 67.359375 
Q 56.890625 61.8125 56.890625 51.125 
Q 56.890625 40.328125 50.609375 34.8125 
Q 44.34375 29.296875 32.078125 29.296875 
L 19.671875 29.296875 
L 19.671875 0 
L 9.8125 0 
z
" id="DejaVuSans-80"/>
      <path d="M 31 75.875 
Q 24.46875 64.65625 21.28125 53.65625 
Q 18.109375 42.671875 18.109375 31.390625 
Q 18.109375 20.125 21.3125 9.0625 
Q 24.515625 -2 31 -13.1875 
L 23.1875 -13.1875 
Q 15.875 -1.703125 12.234375 9.375 
Q 8.59375 20.453125 8.59375 31.390625 
Q 8.59375 42.28125 12.203125 53.3125 
Q 15.828125 64.359375 23.1875 75.875 
z
" id="DejaVuSans-40"/>
      <path d="M 9.8125 72.90625 
L 19.671875 72.90625 
L 19.671875 0 
L 9.8125 0 
z
" id="DejaVuSans-73"/>
      <path d="M 18.3125 70.21875 
L 18.3125 54.6875 
L 36.8125 54.6875 
L 36.8125 47.703125 
L 18.3125 47.703125 
L 18.3125 18.015625 
Q 18.3125 11.328125 20.140625 9.421875 
Q 21.96875 7.515625 27.59375 7.515625 
L 36.8125 7.515625 
L 36.8125 0 
L 27.59375 0 
Q 17.1875 0 13.234375 3.875 
Q 9.28125 7.765625 9.28125 18.015625 
L 9.28125 47.703125 
L 2.6875 47.703125 
L 2.6875 54.6875 
L 9.28125 54.6875 
L 9.28125 70.21875 
z
" id="DejaVuSans-116"/>
      <path id="DejaVuSans-32"/>
      <path d="M 10.59375 45.40625 
L 73.1875 45.40625 
L 73.1875 37.203125 
L 10.59375 37.203125 
z
M 10.59375 25.484375 
L 73.1875 25.484375 
L 73.1875 17.1875 
L 10.59375 17.1875 
z
" id="DejaVuSans-61"/>
      <path d="M 9.421875 54.6875 
L 18.40625 54.6875 
L 18.40625 0 
L 9.421875 0 
z
M 9.421875 75.984375 
L 18.40625 75.984375 
L 18.40625 64.59375 
L 9.421875 64.59375 
z
" id="DejaVuSans-105"/>
      <path d="M 8.015625 75.875 
L 15.828125 75.875 
Q 23.140625 64.359375 26.78125 53.3125 
Q 30.421875 42.28125 30.421875 31.390625 
Q 30.421875 20.453125 26.78125 9.375 
Q 23.140625 -1.703125 15.828125 -13.1875 
L 8.015625 -13.1875 
Q 14.5 -2 17.703125 9.0625 
Q 20.90625 20.125 20.90625 31.390625 
Q 20.90625 42.671875 17.703125 53.65625 
Q 14.5 64.65625 8.015625 75.875 
z
" id="DejaVuSans-41"/>
     </defs>
     <g transform="translate(217.051406 335.860562)scale(0.1 -0.1)">
      <use xlink:href="#DejaVuSans-80"/>
      <use x="60.302734" xlink:href="#DejaVuSans-40"/>
      <use x="99.316406" xlink:href="#DejaVuSans-73"/>
      <use x="128.808594" xlink:href="#DejaVuSans-116"/>
      <use x="168.017578" xlink:href="#DejaVuSans-32"/>
      <use x="199.804688" xlink:href="#DejaVuSans-61"/>
      <use x="283.59375" xlink:href="#DejaVuSans-32"/>
      <use x="315.380859" xlink:href="#DejaVuSans-105"/>
      <use x="343.164062" xlink:href="#DejaVuSans-41"/>
     </g>
    </g>
   </g>
   <g id="matplotlib.axis_2">
    <g id="ytick_1">
     <g id="line2d_10">
      <defs>
       <path d="M 0 0 
L -3.5 0 
" id="m9f1bc71bd6" style="stroke:#000000;stroke-width:0.8;"/>
      </defs>
      <g>
       <use style="stroke:#000000;stroke-width:0.8;" x="57.6" xlink:href="#m9f1bc71bd6" y="295.488"/>
      </g>
     </g>
     <g id="text_11">
      <!-- 0.0 -->
      <defs>
       <path d="M 10.6875 12.40625 
L 21 12.40625 
L 21 0 
L 10.6875 0 
z
" id="DejaVuSans-46"/>
      </defs>
      <g transform="translate(34.696875 299.287219)scale(0.1 -0.1)">
       <use xlink:href="#DejaVuSans-48"/>
       <use x="63.623047" xlink:href="#DejaVuSans-46"/>
       <use x="95.410156" xlink:href="#DejaVuSans-48"/>
      </g>
     </g>
    </g>
    <g id="ytick_2">
     <g id="line2d_11">
      <g>
       <use style="stroke:#000000;stroke-width:0.8;" x="57.6" xlink:href="#m9f1bc71bd6" y="244.696031"/>
      </g>
     </g>
     <g id="text_12">
      <!-- 0.1 -->
      <g transform="translate(34.696875 248.49525)scale(0.1 -0.1)">
       <use xlink:href="#DejaVuSans-48"/>
       <use x="63.623047" xlink:href="#DejaVuSans-46"/>
       <use x="95.410156" xlink:href="#DejaVuSans-49"/>
      </g>
     </g>
    </g>
    <g id="ytick_3">
     <g id="line2d_12">
      <g>
       <use style="stroke:#000000;stroke-width:0.8;" x="57.6" xlink:href="#m9f1bc71bd6" y="193.904062"/>
      </g>
     </g>
     <g id="text_13">
      <!-- 0.2 -->
      <g transform="translate(34.696875 197.703281)scale(0.1 -0.1)">
       <use xlink:href="#DejaVuSans-48"/>
       <use x="63.623047" xlink:href="#DejaVuSans-46"/>
       <use x="95.410156" xlink:href="#DejaVuSans-50"/>
      </g>
     </g>
    </g>
    <g id="ytick_4">
     <g id="line2d_13">
      <g>
       <use style="stroke:#000000;stroke-width:0.8;" x="57.6" xlink:href="#m9f1bc71bd6" y="143.112093"/>
      </g>
     </g>
     <g id="text_14">
      <!-- 0.3 -->
      <g transform="translate(34.696875 146.911312)scale(0.1 -0.1)">
       <use xlink:href="#DejaVuSans-48"/>
       <use x="63.623047" xlink:href="#DejaVuSans-46"/>
       <use x="95.410156" xlink:href="#DejaVuSans-51"/>
      </g>
     </g>
    </g>
    <g id="ytick_5">
     <g id="line2d_14">
      <g>
       <use style="stroke:#000000;stroke-width:0.8;" x="57.6" xlink:href="#m9f1bc71bd6" y="92.320125"/>
      </g>
     </g>
     <g id="text_15">
      <!-- 0.4 -->
      <g transform="translate(34.696875 96.119343)scale(0.1 -0.1)">
       <use xlink:href="#DejaVuSans-48"/>
       <use x="63.623047" xlink:href="#DejaVuSans-46"/>
       <use x="95.410156" xlink:href="#DejaVuSans-52"/>
      </g>
     </g>
    </g>
    <g id="ytick_6">
     <g id="line2d_15">
      <g>
       <use style="stroke:#000000;stroke-width:0.8;" x="57.6" xlink:href="#m9f1bc71bd6" y="41.528156"/>
      </g>
     </g>
     <g id="text_16">
      <!-- 0.5 -->
      <g transform="translate(34.696875 45.327374)scale(0.1 -0.1)">
       <use xlink:href="#DejaVuSans-48"/>
       <use x="63.623047" xlink:href="#DejaVuSans-46"/>
       <use x="95.410156" xlink:href="#DejaVuSans-53"/>
      </g>
     </g>
    </g>
    <g id="text_17">
     <!-- Number of Pulls (units of H1) -->
     <defs>
      <path d="M 9.8125 72.90625 
L 23.09375 72.90625 
L 55.421875 11.921875 
L 55.421875 72.90625 
L 64.984375 72.90625 
L 64.984375 0 
L 51.703125 0 
L 19.390625 60.984375 
L 19.390625 0 
L 9.8125 0 
z
" id="DejaVuSans-78"/>
      <path d="M 8.5 21.578125 
L 8.5 54.6875 
L 17.484375 54.6875 
L 17.484375 21.921875 
Q 17.484375 14.15625 20.5 10.265625 
Q 23.53125 6.390625 29.59375 6.390625 
Q 36.859375 6.390625 41.078125 11.03125 
Q 45.3125 15.671875 45.3125 23.6875 
L 45.3125 54.6875 
L 54.296875 54.6875 
L 54.296875 0 
L 45.3125 0 
L 45.3125 8.40625 
Q 42.046875 3.421875 37.71875 1 
Q 33.40625 -1.421875 27.6875 -1.421875 
Q 18.265625 -1.421875 13.375 4.4375 
Q 8.5 10.296875 8.5 21.578125 
z
M 31.109375 56 
z
" id="DejaVuSans-117"/>
      <path d="M 52 44.1875 
Q 55.375 50.25 60.0625 53.125 
Q 64.75 56 71.09375 56 
Q 79.640625 56 84.28125 50.015625 
Q 88.921875 44.046875 88.921875 33.015625 
L 88.921875 0 
L 79.890625 0 
L 79.890625 32.71875 
Q 79.890625 40.578125 77.09375 44.375 
Q 74.3125 48.1875 68.609375 48.1875 
Q 61.625 48.1875 57.5625 43.546875 
Q 53.515625 38.921875 53.515625 30.90625 
L 53.515625 0 
L 44.484375 0 
L 44.484375 32.71875 
Q 44.484375 40.625 41.703125 44.40625 
Q 38.921875 48.1875 33.109375 48.1875 
Q 26.21875 48.1875 22.15625 43.53125 
Q 18.109375 38.875 18.109375 30.90625 
L 18.109375 0 
L 9.078125 0 
L 9.078125 54.6875 
L 18.109375 54.6875 
L 18.109375 46.1875 
Q 21.1875 51.21875 25.484375 53.609375 
Q 29.78125 56 35.6875 56 
Q 41.65625 56 45.828125 52.96875 
Q 50 49.953125 52 44.1875 
z
" id="DejaVuSans-109"/>
      <path d="M 48.6875 27.296875 
Q 48.6875 37.203125 44.609375 42.84375 
Q 40.53125 48.484375 33.40625 48.484375 
Q 26.265625 48.484375 22.1875 42.84375 
Q 18.109375 37.203125 18.109375 27.296875 
Q 18.109375 17.390625 22.1875 11.75 
Q 26.265625 6.109375 33.40625 6.109375 
Q 40.53125 6.109375 44.609375 11.75 
Q 48.6875 17.390625 48.6875 27.296875 
z
M 18.109375 46.390625 
Q 20.953125 51.265625 25.265625 53.625 
Q 29.59375 56 35.59375 56 
Q 45.5625 56 51.78125 48.09375 
Q 58.015625 40.1875 58.015625 27.296875 
Q 58.015625 14.40625 51.78125 6.484375 
Q 45.5625 -1.421875 35.59375 -1.421875 
Q 29.59375 -1.421875 25.265625 0.953125 
Q 20.953125 3.328125 18.109375 8.203125 
L 18.109375 0 
L 9.078125 0 
L 9.078125 75.984375 
L 18.109375 75.984375 
z
" id="DejaVuSans-98"/>
      <path d="M 56.203125 29.59375 
L 56.203125 25.203125 
L 14.890625 25.203125 
Q 15.484375 15.921875 20.484375 11.0625 
Q 25.484375 6.203125 34.421875 6.203125 
Q 39.59375 6.203125 44.453125 7.46875 
Q 49.3125 8.734375 54.109375 11.28125 
L 54.109375 2.78125 
Q 49.265625 0.734375 44.1875 -0.34375 
Q 39.109375 -1.421875 33.890625 -1.421875 
Q 20.796875 -1.421875 13.15625 6.1875 
Q 5.515625 13.8125 5.515625 26.8125 
Q 5.515625 40.234375 12.765625 48.109375 
Q 20.015625 56 32.328125 56 
Q 43.359375 56 49.78125 48.890625 
Q 56.203125 41.796875 56.203125 29.59375 
z
M 47.21875 32.234375 
Q 47.125 39.59375 43.09375 43.984375 
Q 39.0625 48.390625 32.421875 48.390625 
Q 24.90625 48.390625 20.390625 44.140625 
Q 15.875 39.890625 15.1875 32.171875 
z
" id="DejaVuSans-101"/>
      <path d="M 41.109375 46.296875 
Q 39.59375 47.171875 37.8125 47.578125 
Q 36.03125 48 33.890625 48 
Q 26.265625 48 22.1875 43.046875 
Q 18.109375 38.09375 18.109375 28.8125 
L 18.109375 0 
L 9.078125 0 
L 9.078125 54.6875 
L 18.109375 54.6875 
L 18.109375 46.1875 
Q 20.953125 51.171875 25.484375 53.578125 
Q 30.03125 56 36.53125 56 
Q 37.453125 56 38.578125 55.875 
Q 39.703125 55.765625 41.0625 55.515625 
z
" id="DejaVuSans-114"/>
      <path d="M 30.609375 48.390625 
Q 23.390625 48.390625 19.1875 42.75 
Q 14.984375 37.109375 14.984375 27.296875 
Q 14.984375 17.484375 19.15625 11.84375 
Q 23.34375 6.203125 30.609375 6.203125 
Q 37.796875 6.203125 41.984375 11.859375 
Q 46.1875 17.53125 46.1875 27.296875 
Q 46.1875 37.015625 41.984375 42.703125 
Q 37.796875 48.390625 30.609375 48.390625 
z
M 30.609375 56 
Q 42.328125 56 49.015625 48.375 
Q 55.71875 40.765625 55.71875 27.296875 
Q 55.71875 13.875 49.015625 6.21875 
Q 42.328125 -1.421875 30.609375 -1.421875 
Q 18.84375 -1.421875 12.171875 6.21875 
Q 5.515625 13.875 5.515625 27.296875 
Q 5.515625 40.765625 12.171875 48.375 
Q 18.84375 56 30.609375 56 
z
" id="DejaVuSans-111"/>
      <path d="M 37.109375 75.984375 
L 37.109375 68.5 
L 28.515625 68.5 
Q 23.6875 68.5 21.796875 66.546875 
Q 19.921875 64.59375 19.921875 59.515625 
L 19.921875 54.6875 
L 34.71875 54.6875 
L 34.71875 47.703125 
L 19.921875 47.703125 
L 19.921875 0 
L 10.890625 0 
L 10.890625 47.703125 
L 2.296875 47.703125 
L 2.296875 54.6875 
L 10.890625 54.6875 
L 10.890625 58.5 
Q 10.890625 67.625 15.140625 71.796875 
Q 19.390625 75.984375 28.609375 75.984375 
z
" id="DejaVuSans-102"/>
      <path d="M 9.421875 75.984375 
L 18.40625 75.984375 
L 18.40625 0 
L 9.421875 0 
z
" id="DejaVuSans-108"/>
      <path d="M 44.28125 53.078125 
L 44.28125 44.578125 
Q 40.484375 46.53125 36.375 47.5 
Q 32.28125 48.484375 27.875 48.484375 
Q 21.1875 48.484375 17.84375 46.4375 
Q 14.5 44.390625 14.5 40.28125 
Q 14.5 37.15625 16.890625 35.375 
Q 19.28125 33.59375 26.515625 31.984375 
L 29.59375 31.296875 
Q 39.15625 29.25 43.1875 25.515625 
Q 47.21875 21.78125 47.21875 15.09375 
Q 47.21875 7.46875 41.1875 3.015625 
Q 35.15625 -1.421875 24.609375 -1.421875 
Q 20.21875 -1.421875 15.453125 -0.5625 
Q 10.6875 0.296875 5.421875 2 
L 5.421875 11.28125 
Q 10.40625 8.6875 15.234375 7.390625 
Q 20.0625 6.109375 24.8125 6.109375 
Q 31.15625 6.109375 34.5625 8.28125 
Q 37.984375 10.453125 37.984375 14.40625 
Q 37.984375 18.0625 35.515625 20.015625 
Q 33.0625 21.96875 24.703125 23.78125 
L 21.578125 24.515625 
Q 13.234375 26.265625 9.515625 29.90625 
Q 5.8125 33.546875 5.8125 39.890625 
Q 5.8125 47.609375 11.28125 51.796875 
Q 16.75 56 26.8125 56 
Q 31.78125 56 36.171875 55.265625 
Q 40.578125 54.546875 44.28125 53.078125 
z
" id="DejaVuSans-115"/>
      <path d="M 54.890625 33.015625 
L 54.890625 0 
L 45.90625 0 
L 45.90625 32.71875 
Q 45.90625 40.484375 42.875 44.328125 
Q 39.84375 48.1875 33.796875 48.1875 
Q 26.515625 48.1875 22.3125 43.546875 
Q 18.109375 38.921875 18.109375 30.90625 
L 18.109375 0 
L 9.078125 0 
L 9.078125 54.6875 
L 18.109375 54.6875 
L 18.109375 46.1875 
Q 21.34375 51.125 25.703125 53.5625 
Q 30.078125 56 35.796875 56 
Q 45.21875 56 50.046875 50.171875 
Q 54.890625 44.34375 54.890625 33.015625 
z
" id="DejaVuSans-110"/>
      <path d="M 9.8125 72.90625 
L 19.671875 72.90625 
L 19.671875 43.015625 
L 55.515625 43.015625 
L 55.515625 72.90625 
L 65.375 72.90625 
L 65.375 0 
L 55.515625 0 
L 55.515625 34.71875 
L 19.671875 34.71875 
L 19.671875 0 
L 9.8125 0 
z
" id="DejaVuSans-72"/>
     </defs>
     <g transform="translate(28.617187 246.898312)rotate(-90)scale(0.1 -0.1)">
      <use xlink:href="#DejaVuSans-78"/>
      <use x="74.804688" xlink:href="#DejaVuSans-117"/>
      <use x="138.183594" xlink:href="#DejaVuSans-109"/>
      <use x="235.595703" xlink:href="#DejaVuSans-98"/>
      <use x="299.072266" xlink:href="#DejaVuSans-101"/>
      <use x="360.595703" xlink:href="#DejaVuSans-114"/>
      <use x="401.708984" xlink:href="#DejaVuSans-32"/>
      <use x="433.496094" xlink:href="#DejaVuSans-111"/>
      <use x="494.677734" xlink:href="#DejaVuSans-102"/>
      <use x="529.882812" xlink:href="#DejaVuSans-32"/>
      <use x="561.669922" xlink:href="#DejaVuSans-80"/>
      <use x="621.957031" xlink:href="#DejaVuSans-117"/>
      <use x="685.335938" xlink:href="#DejaVuSans-108"/>
      <use x="713.119141" xlink:href="#DejaVuSans-108"/>
      <use x="740.902344" xlink:href="#DejaVuSans-115"/>
      <use x="793.001953" xlink:href="#DejaVuSans-32"/>
      <use x="824.789062" xlink:href="#DejaVuSans-40"/>
      <use x="863.802734" xlink:href="#DejaVuSans-117"/>
      <use x="927.181641" xlink:href="#DejaVuSans-110"/>
      <use x="990.560547" xlink:href="#DejaVuSans-105"/>
      <use x="1018.34375" xlink:href="#DejaVuSans-116"/>
      <use x="1057.552734" xlink:href="#DejaVuSans-115"/>
      <use x="1109.652344" xlink:href="#DejaVuSans-32"/>
      <use x="1141.439453" xlink:href="#DejaVuSans-111"/>
      <use x="1202.621094" xlink:href="#DejaVuSans-102"/>
      <use x="1237.826172" xlink:href="#DejaVuSans-32"/>
      <use x="1269.613281" xlink:href="#DejaVuSans-72"/>
      <use x="1344.808594" xlink:href="#DejaVuSans-49"/>
      <use x="1408.431641" xlink:href="#DejaVuSans-41"/>
     </g>
    </g>
   </g>
   <g id="line2d_16">
    <path clip-path="url(#pc8930345fa)" d="M 73.832727 244.708575 
L 74.565214 244.891356 
L 75.704639 246.083476 
L 78.471812 249.243882 
L 84.413096 255.83176 
L 96.865376 269.862432 
L 100.771974 273.826768 
L 104.271634 277.062108 
L 107.527132 279.772174 
L 110.701243 282.12611 
L 113.793966 284.148553 
L 116.968077 285.958072 
L 120.223575 287.553675 
L 123.56046 288.941359 
L 127.060121 290.158413 
L 130.885331 291.24812 
L 135.036091 292.192448 
L 139.593788 292.997796 
L 144.802585 293.686422 
L 150.825257 294.253061 
L 158.150127 294.710452 
L 167.428297 295.056687 
L 180.287514 295.29806 
L 200.959927 295.437357 
L 250.280723 295.485816 
L 398.487273 295.488 
L 398.487273 295.488 
" style="fill:none;stroke:#1f77b4;stroke-linecap:square;stroke-width:1.5;"/>
   </g>
   <g id="line2d_17">
    <path clip-path="url(#pc8930345fa)" d="M 73.832727 244.584032 
L 74.809377 243.074283 
L 76.111576 240.397868 
L 78.471812 234.91419 
L 81.808698 226.404798 
L 87.180269 212.023983 
L 94.667915 192.046309 
L 98.493125 182.495926 
L 101.748623 174.951188 
L 104.678572 168.703168 
L 107.445745 163.312305 
L 110.131531 158.567333 
L 112.735929 154.422154 
L 115.25894 150.822007 
L 117.781951 147.61109 
L 120.304962 144.764839 
L 122.827973 142.255531 
L 125.350984 140.053868 
L 127.955383 138.072498 
L 130.641169 136.305872 
L 133.489729 134.702611 
L 136.501065 133.270672 
L 139.675176 132.011583 
L 143.093449 130.8973 
L 146.837272 129.914155 
L 150.988032 129.05768 
L 155.708504 128.31679 
L 161.161463 127.693015 
L 167.672459 127.180682 
L 175.729817 126.77932 
L 186.391573 126.484026 
L 202.017964 126.292801 
L 212.67972 126.325934 
L 233.107971 127.839742 
L 240.839778 129.055006 
L 265.581564 134.471506 
L 267.2907 135.066823 
L 272.499497 137.010579 
L 274.696958 138.048479 
L 280.556855 141.022062 
L 283.812353 143.159217 
L 290.893061 148.615166 
L 294.555497 151.944191 
L 298.055157 155.31703 
L 306.193902 163.620254 
L 318.483408 176.066914 
L 323.936367 182.291296 
L 327.273252 186.216608 
L 352.340588 216.66467 
L 357.305222 223.623465 
L 370.652764 242.404486 
L 375.536011 248.757858 
L 378.954284 252.943922 
L 382.372557 256.786468 
L 386.279155 260.826829 
L 390.022978 264.388161 
L 394.09235 267.966876 
L 397.592011 270.742175 
L 398.487273 271.408313 
L 398.487273 271.408313 
" style="fill:none;stroke:#ff7f0e;stroke-linecap:square;stroke-width:1.5;"/>
   </g>
   <g id="line2d_18">
    <path clip-path="url(#pc8930345fa)" d="M 73.832727 244.848652 
L 74.890764 246.619859 
L 76.111576 248.125857 
L 79.448461 251.743369 
L 85.55252 258.356335 
L 95.888727 269.670771 
L 99.958099 273.744843 
L 103.539147 277.01935 
L 106.876033 279.771032 
L 110.050143 282.106671 
L 113.224254 284.168056 
L 116.398365 285.965616 
L 119.653863 287.55345 
L 122.990748 288.936498 
L 126.571796 290.17674 
L 130.397006 291.260671 
L 134.547766 292.200835 
L 139.105464 293.003251 
L 144.314261 293.689823 
L 150.418319 294.26138 
L 157.74319 294.71556 
L 167.102747 295.061681 
L 180.043352 295.301219 
L 200.87854 295.438714 
L 251.175985 295.486002 
L 398.487273 295.488 
L 398.487273 295.488 
" style="fill:none;stroke:#2ca02c;stroke-linecap:square;stroke-width:1.5;"/>
   </g>
   <g id="line2d_19">
    <path clip-path="url(#pc8930345fa)" d="M 73.832727 244.597295 
L 75.786026 242.399302 
L 76.111576 242.202403 
L 76.92545 242.066974 
L 77.657938 242.248751 
L 78.390425 242.743703 
L 80.018174 244.512714 
L 83.273672 248.637172 
L 98.167575 267.724193 
L 101.748623 271.774927 
L 105.004121 275.133971 
L 108.096845 278.014844 
L 111.10818 280.522306 
L 114.119516 282.74067 
L 117.130852 284.682957 
L 120.223575 286.410275 
L 123.397685 287.92666 
L 126.734571 289.271619 
L 130.234231 290.443239 
L 134.059442 291.486012 
L 138.210202 292.384928 
L 142.849286 293.159917 
L 148.139471 293.815321 
L 154.406305 294.36068 
L 162.056725 294.79364 
L 171.904607 295.116966 
L 185.903248 295.336209 
L 209.586997 295.454643 
L 277.138582 295.487542 
L 398.487273 295.488 
L 398.487273 295.488 
" style="fill:none;stroke:#d62728;stroke-linecap:square;stroke-width:1.5;"/>
   </g>
   <g id="line2d_20">
    <path clip-path="url(#pc8930345fa)" d="M 73.832727 244.584032 
L 74.809377 243.074283 
L 76.111576 240.397868 
L 78.471812 234.91419 
L 81.808698 226.404798 
L 87.180269 212.023983 
L 94.667915 192.046309 
L 98.493125 182.495926 
L 101.748623 174.951188 
L 104.678572 168.703168 
L 107.445745 163.312305 
L 110.131531 158.567333 
L 112.735929 154.422154 
L 115.25894 150.822007 
L 117.781951 147.61109 
L 120.304962 144.764839 
L 122.827973 142.255531 
L 125.350984 140.053868 
L 127.955383 138.072498 
L 130.641169 136.305872 
L 133.489729 134.702611 
L 136.501065 133.270672 
L 139.675176 132.011583 
L 143.093449 130.8973 
L 146.837272 129.914155 
L 150.988032 129.05768 
L 155.708504 128.31679 
L 161.161463 127.693015 
L 167.672459 127.180682 
L 175.729817 126.77932 
L 186.391573 126.484026 
L 202.017964 126.292801 
L 215.365506 126.087778 
L 235.793756 125.179754 
L 242.38614 124.591677 
L 266.476826 121.884539 
L 273.557534 120.527363 
L 281.37073 118.510352 
L 284.626228 117.388094 
L 291.625548 114.647242 
L 296.183246 112.5515 
L 298.706257 111.275994 
L 308.879688 106.127772 
L 317.75092 101.627689 
L 321.250581 99.654039 
L 330.284588 94.342637 
L 342.411318 87.003849 
L 352.2592 80.995398 
L 359.258521 76.082693 
L 372.68745 66.726001 
L 378.303185 63.185278 
L 382.535332 60.791525 
L 387.418579 58.301651 
L 392.708764 55.876824 
L 397.266461 54.024339 
L 398.487273 53.568 
L 398.487273 53.568 
" style="fill:none;stroke:#9467bd;stroke-linecap:square;stroke-width:1.5;"/>
   </g>
   <g id="line2d_21">
    <path clip-path="url(#pc8930345fa)" d="M 73.832727 244.753547 
L 74.727989 245.505362 
L 79.041524 250.414634 
L 84.820033 256.771295 
L 96.458439 269.746738 
L 100.446424 273.776243 
L 103.946084 277.001729 
L 107.201583 279.708222 
L 110.375693 282.062526 
L 113.549804 284.137669 
L 116.723914 285.945152 
L 119.979412 287.540146 
L 123.316298 288.928206 
L 126.897346 290.171975 
L 130.722556 291.258239 
L 134.873316 292.19986 
L 139.431013 293.003106 
L 144.63981 293.690083 
L 150.743869 294.261766 
L 158.06874 294.715907 
L 167.428297 295.061916 
L 180.368902 295.301335 
L 201.285477 295.439002 
L 251.827084 295.486044 
L 398.487273 295.488 
L 398.487273 295.488 
" style="fill:none;stroke:#8c564b;stroke-linecap:square;stroke-width:1.5;"/>
   </g>
   <g id="line2d_22">
    <path clip-path="url(#pc8930345fa)" d="M 73.832727 244.77734 
L 74.890764 245.971201 
L 76.437126 247.85187 
L 79.285687 250.970082 
L 85.226971 257.481602 
L 96.051502 269.488639 
L 100.039487 273.525987 
L 103.620535 276.838018 
L 106.95742 279.61998 
L 110.131531 281.980424 
L 113.305641 284.063016 
L 116.479752 285.878546 
L 119.73525 287.481848 
L 123.072136 288.878059 
L 126.571796 290.103996 
L 130.315619 291.181746 
L 134.384991 292.122561 
L 138.942689 292.943778 
L 144.070098 293.637222 
L 150.09277 294.218856 
L 157.336253 294.684542 
L 166.451647 295.037559 
L 178.985315 295.285425 
L 198.843853 295.431091 
L 244.176664 295.484843 
L 398.487273 295.488 
L 398.487273 295.488 
" style="fill:none;stroke:#e377c2;stroke-linecap:square;stroke-width:1.5;"/>
   </g>
   <g id="line2d_23">
    <path clip-path="url(#pc8930345fa)" d="M 73.832727 244.584032 
L 74.809377 243.074283 
L 76.111576 240.397868 
L 78.471812 234.91419 
L 81.808698 226.404798 
L 87.180269 212.023983 
L 94.667915 192.046309 
L 98.493125 182.495926 
L 101.748623 174.951188 
L 104.678572 168.703168 
L 107.445745 163.312305 
L 110.131531 158.567333 
L 112.735929 154.422154 
L 115.25894 150.822007 
L 117.781951 147.61109 
L 120.304962 144.764839 
L 122.827973 142.255531 
L 125.350984 140.053868 
L 127.955383 138.072498 
L 130.641169 136.305872 
L 133.489729 134.702611 
L 136.501065 133.270672 
L 139.675176 132.011583 
L 143.093449 130.8973 
L 146.837272 129.914155 
L 150.988032 129.05768 
L 155.708504 128.31679 
L 161.161463 127.693015 
L 167.672459 127.180682 
L 175.729817 126.77932 
L 186.391573 126.484026 
L 202.017964 126.292801 
L 215.365506 126.087778 
L 235.793756 125.179754 
L 242.38614 124.591677 
L 266.476826 121.884539 
L 273.557534 120.527363 
L 281.37073 118.510352 
L 284.626228 117.388094 
L 291.625548 114.647242 
L 296.183246 112.5515 
L 298.706257 111.275994 
L 308.879688 106.127772 
L 317.75092 101.627689 
L 321.250581 99.654039 
L 330.284588 94.342637 
L 342.411318 87.003849 
L 352.2592 80.995398 
L 359.258521 76.082693 
L 372.68745 66.726001 
L 378.303185 63.185278 
L 382.535332 60.791525 
L 387.418579 58.301651 
L 392.708764 55.876824 
L 397.266461 54.024339 
L 398.487273 53.568 
L 398.487273 53.568 
" style="fill:none;stroke:#7f7f7f;stroke-linecap:square;stroke-width:1.5;"/>
   </g>
   <g id="line2d_24">
    <path clip-path="url(#pc8930345fa)" d="M 73.832727 244.674157 
L 74.565214 244.560644 
L 75.379089 245.20507 
L 77.983487 248.269541 
L 98.818675 271.664735 
L 102.48111 275.258078 
L 105.817996 278.225243 
L 108.992106 280.756509 
L 112.08483 282.946337 
L 115.177553 284.870342 
L 118.351663 286.583924 
L 121.607162 288.088812 
L 125.025434 289.422002 
L 128.606482 290.581132 
L 132.51308 291.609195 
L 136.826615 292.506978 
L 141.628475 293.272044 
L 147.081434 293.911015 
L 153.511043 294.435547 
L 161.487013 294.852814 
L 171.904607 295.160643 
L 186.879898 295.362183 
L 213.493595 295.465072 
L 305.29864 295.487929 
L 398.487273 295.488 
L 398.487273 295.488 
" style="fill:none;stroke:#bcbd22;stroke-linecap:square;stroke-width:1.5;"/>
   </g>
   <g id="line2d_25">
    <path clip-path="url(#pc8930345fa)" d="M 73.832727 244.848652 
L 74.890764 246.619859 
L 76.111576 248.125857 
L 79.448461 251.743369 
L 85.55252 258.356335 
L 95.888727 269.670771 
L 99.958099 273.744843 
L 103.539147 277.01935 
L 106.876033 279.771032 
L 110.050143 282.106671 
L 113.224254 284.168056 
L 116.398365 285.965616 
L 119.653863 287.55345 
L 122.990748 288.936498 
L 126.571796 290.17674 
L 130.397006 291.260671 
L 134.547766 292.200835 
L 139.105464 293.003251 
L 144.314261 293.689823 
L 150.418319 294.26138 
L 157.74319 294.71556 
L 167.102747 295.061681 
L 180.043352 295.301219 
L 200.87854 295.438714 
L 251.175985 295.486002 
L 398.487273 295.488 
L 398.487273 295.488 
" style="fill:none;stroke:#17becf;stroke-linecap:square;stroke-width:1.5;"/>
   </g>
   <g id="patch_3">
    <path d="M 57.6 307.584 
L 57.6 41.472 
" style="fill:none;stroke:#000000;stroke-linecap:square;stroke-linejoin:miter;stroke-width:0.8;"/>
   </g>
   <g id="patch_4">
    <path d="M 414.72 307.584 
L 414.72 41.472 
" style="fill:none;stroke:#000000;stroke-linecap:square;stroke-linejoin:miter;stroke-width:0.8;"/>
   </g>
   <g id="patch_5">
    <path d="M 57.6 307.584 
L 414.72 307.584 
" style="fill:none;stroke:#000000;stroke-linecap:square;stroke-linejoin:miter;stroke-width:0.8;"/>
   </g>
   <g id="patch_6">
    <path d="M 57.6 41.472 
L 414.72 41.472 
" style="fill:none;stroke:#000000;stroke-linecap:square;stroke-linejoin:miter;stroke-width:0.8;"/>
   </g>
   <g id="legend_1">
    <g id="patch_7">
     <path d="M 223.595 249.418625 
L 407.72 249.418625 
Q 409.72 249.418625 409.72 247.418625 
L 409.72 101.637375 
Q 409.72 99.637375 407.72 99.637375 
L 223.595 99.637375 
Q 221.595 99.637375 221.595 101.637375 
L 221.595 247.418625 
Q 221.595 249.418625 223.595 249.418625 
z
" style="fill:#ffffff;opacity:0.8;stroke:#cccccc;stroke-linejoin:miter;"/>
    </g>
    <g id="line2d_26">
     <path d="M 225.595 107.735813 
L 245.595 107.735813 
" style="fill:none;stroke:#1f77b4;stroke-linecap:square;stroke-width:1.5;"/>
    </g>
    <g id="line2d_27"/>
    <g id="text_18">
     <!-- mu = -0.23357240691024106 -->
     <defs>
      <path d="M 4.890625 31.390625 
L 31.203125 31.390625 
L 31.203125 23.390625 
L 4.890625 23.390625 
z
" id="DejaVuSans-45"/>
      <path d="M 8.203125 72.90625 
L 55.078125 72.90625 
L 55.078125 68.703125 
L 28.609375 0 
L 18.3125 0 
L 43.21875 64.59375 
L 8.203125 64.59375 
z
" id="DejaVuSans-55"/>
      <path d="M 33.015625 40.375 
Q 26.375 40.375 22.484375 35.828125 
Q 18.609375 31.296875 18.609375 23.390625 
Q 18.609375 15.53125 22.484375 10.953125 
Q 26.375 6.390625 33.015625 6.390625 
Q 39.65625 6.390625 43.53125 10.953125 
Q 47.40625 15.53125 47.40625 23.390625 
Q 47.40625 31.296875 43.53125 35.828125 
Q 39.65625 40.375 33.015625 40.375 
z
M 52.59375 71.296875 
L 52.59375 62.3125 
Q 48.875 64.0625 45.09375 64.984375 
Q 41.3125 65.921875 37.59375 65.921875 
Q 27.828125 65.921875 22.671875 59.328125 
Q 17.53125 52.734375 16.796875 39.40625 
Q 19.671875 43.65625 24.015625 45.921875 
Q 28.375 48.1875 33.59375 48.1875 
Q 44.578125 48.1875 50.953125 41.515625 
Q 57.328125 34.859375 57.328125 23.390625 
Q 57.328125 12.15625 50.6875 5.359375 
Q 44.046875 -1.421875 33.015625 -1.421875 
Q 20.359375 -1.421875 13.671875 8.265625 
Q 6.984375 17.96875 6.984375 36.375 
Q 6.984375 53.65625 15.1875 63.9375 
Q 23.390625 74.21875 37.203125 74.21875 
Q 40.921875 74.21875 44.703125 73.484375 
Q 48.484375 72.75 52.59375 71.296875 
z
" id="DejaVuSans-54"/>
      <path d="M 10.984375 1.515625 
L 10.984375 10.5 
Q 14.703125 8.734375 18.5 7.8125 
Q 22.3125 6.890625 25.984375 6.890625 
Q 35.75 6.890625 40.890625 13.453125 
Q 46.046875 20.015625 46.78125 33.40625 
Q 43.953125 29.203125 39.59375 26.953125 
Q 35.25 24.703125 29.984375 24.703125 
Q 19.046875 24.703125 12.671875 31.3125 
Q 6.296875 37.9375 6.296875 49.421875 
Q 6.296875 60.640625 12.9375 67.421875 
Q 19.578125 74.21875 30.609375 74.21875 
Q 43.265625 74.21875 49.921875 64.515625 
Q 56.59375 54.828125 56.59375 36.375 
Q 56.59375 19.140625 48.40625 8.859375 
Q 40.234375 -1.421875 26.421875 -1.421875 
Q 22.703125 -1.421875 18.890625 -0.6875 
Q 15.09375 0.046875 10.984375 1.515625 
z
M 30.609375 32.421875 
Q 37.25 32.421875 41.125 36.953125 
Q 45.015625 41.5 45.015625 49.421875 
Q 45.015625 57.28125 41.125 61.84375 
Q 37.25 66.40625 30.609375 66.40625 
Q 23.96875 66.40625 20.09375 61.84375 
Q 16.21875 57.28125 16.21875 49.421875 
Q 16.21875 41.5 20.09375 36.953125 
Q 23.96875 32.421875 30.609375 32.421875 
z
" id="DejaVuSans-57"/>
     </defs>
     <g transform="translate(253.595 111.235813)scale(0.1 -0.1)">
      <use xlink:href="#DejaVuSans-109"/>
      <use x="97.412109" xlink:href="#DejaVuSans-117"/>
      <use x="160.791016" xlink:href="#DejaVuSans-32"/>
      <use x="192.578125" xlink:href="#DejaVuSans-61"/>
      <use x="276.367188" xlink:href="#DejaVuSans-32"/>
      <use x="308.154297" xlink:href="#DejaVuSans-45"/>
      <use x="344.238281" xlink:href="#DejaVuSans-48"/>
      <use x="407.861328" xlink:href="#DejaVuSans-46"/>
      <use x="439.648438" xlink:href="#DejaVuSans-50"/>
      <use x="503.271484" xlink:href="#DejaVuSans-51"/>
      <use x="566.894531" xlink:href="#DejaVuSans-51"/>
      <use x="630.517578" xlink:href="#DejaVuSans-53"/>
      <use x="694.140625" xlink:href="#DejaVuSans-55"/>
      <use x="757.763672" xlink:href="#DejaVuSans-50"/>
      <use x="821.386719" xlink:href="#DejaVuSans-52"/>
      <use x="885.009766" xlink:href="#DejaVuSans-48"/>
      <use x="948.632812" xlink:href="#DejaVuSans-54"/>
      <use x="1012.255859" xlink:href="#DejaVuSans-57"/>
      <use x="1075.878906" xlink:href="#DejaVuSans-49"/>
      <use x="1139.501953" xlink:href="#DejaVuSans-48"/>
      <use x="1203.125" xlink:href="#DejaVuSans-50"/>
      <use x="1266.748047" xlink:href="#DejaVuSans-52"/>
      <use x="1330.371094" xlink:href="#DejaVuSans-49"/>
      <use x="1393.994141" xlink:href="#DejaVuSans-48"/>
      <use x="1457.617188" xlink:href="#DejaVuSans-54"/>
     </g>
    </g>
    <g id="line2d_28">
     <path d="M 225.595 122.413938 
L 245.595 122.413938 
" style="fill:none;stroke:#ff7f0e;stroke-linecap:square;stroke-width:1.5;"/>
    </g>
    <g id="line2d_29"/>
    <g id="text_19">
     <!-- mu = 1.3148217832550122 -->
     <defs>
      <path d="M 31.78125 34.625 
Q 24.75 34.625 20.71875 30.859375 
Q 16.703125 27.09375 16.703125 20.515625 
Q 16.703125 13.921875 20.71875 10.15625 
Q 24.75 6.390625 31.78125 6.390625 
Q 38.8125 6.390625 42.859375 10.171875 
Q 46.921875 13.96875 46.921875 20.515625 
Q 46.921875 27.09375 42.890625 30.859375 
Q 38.875 34.625 31.78125 34.625 
z
M 21.921875 38.8125 
Q 15.578125 40.375 12.03125 44.71875 
Q 8.5 49.078125 8.5 55.328125 
Q 8.5 64.0625 14.71875 69.140625 
Q 20.953125 74.21875 31.78125 74.21875 
Q 42.671875 74.21875 48.875 69.140625 
Q 55.078125 64.0625 55.078125 55.328125 
Q 55.078125 49.078125 51.53125 44.71875 
Q 48 40.375 41.703125 38.8125 
Q 48.828125 37.15625 52.796875 32.3125 
Q 56.78125 27.484375 56.78125 20.515625 
Q 56.78125 9.90625 50.3125 4.234375 
Q 43.84375 -1.421875 31.78125 -1.421875 
Q 19.734375 -1.421875 13.25 4.234375 
Q 6.78125 9.90625 6.78125 20.515625 
Q 6.78125 27.484375 10.78125 32.3125 
Q 14.796875 37.15625 21.921875 38.8125 
z
M 18.3125 54.390625 
Q 18.3125 48.734375 21.84375 45.5625 
Q 25.390625 42.390625 31.78125 42.390625 
Q 38.140625 42.390625 41.71875 45.5625 
Q 45.3125 48.734375 45.3125 54.390625 
Q 45.3125 60.0625 41.71875 63.234375 
Q 38.140625 66.40625 31.78125 66.40625 
Q 25.390625 66.40625 21.84375 63.234375 
Q 18.3125 60.0625 18.3125 54.390625 
z
" id="DejaVuSans-56"/>
     </defs>
     <g transform="translate(253.595 125.913938)scale(0.1 -0.1)">
      <use xlink:href="#DejaVuSans-109"/>
      <use x="97.412109" xlink:href="#DejaVuSans-117"/>
      <use x="160.791016" xlink:href="#DejaVuSans-32"/>
      <use x="192.578125" xlink:href="#DejaVuSans-61"/>
      <use x="276.367188" xlink:href="#DejaVuSans-32"/>
      <use x="308.154297" xlink:href="#DejaVuSans-49"/>
      <use x="371.777344" xlink:href="#DejaVuSans-46"/>
      <use x="403.564453" xlink:href="#DejaVuSans-51"/>
      <use x="467.1875" xlink:href="#DejaVuSans-49"/>
      <use x="530.810547" xlink:href="#DejaVuSans-52"/>
      <use x="594.433594" xlink:href="#DejaVuSans-56"/>
      <use x="658.056641" xlink:href="#DejaVuSans-50"/>
      <use x="721.679688" xlink:href="#DejaVuSans-49"/>
      <use x="785.302734" xlink:href="#DejaVuSans-55"/>
      <use x="848.925781" xlink:href="#DejaVuSans-56"/>
      <use x="912.548828" xlink:href="#DejaVuSans-51"/>
      <use x="976.171875" xlink:href="#DejaVuSans-50"/>
      <use x="1039.794922" xlink:href="#DejaVuSans-53"/>
      <use x="1103.417969" xlink:href="#DejaVuSans-53"/>
      <use x="1167.041016" xlink:href="#DejaVuSans-48"/>
      <use x="1230.664062" xlink:href="#DejaVuSans-49"/>
      <use x="1294.287109" xlink:href="#DejaVuSans-50"/>
      <use x="1357.910156" xlink:href="#DejaVuSans-50"/>
     </g>
    </g>
    <g id="line2d_30">
     <path d="M 225.595 137.092063 
L 245.595 137.092063 
" style="fill:none;stroke:#2ca02c;stroke-linecap:square;stroke-width:1.5;"/>
    </g>
    <g id="line2d_31"/>
    <g id="text_20">
     <!-- mu = -1.8652349908331654 -->
     <g transform="translate(253.595 140.592063)scale(0.1 -0.1)">
      <use xlink:href="#DejaVuSans-109"/>
      <use x="97.412109" xlink:href="#DejaVuSans-117"/>
      <use x="160.791016" xlink:href="#DejaVuSans-32"/>
      <use x="192.578125" xlink:href="#DejaVuSans-61"/>
      <use x="276.367188" xlink:href="#DejaVuSans-32"/>
      <use x="308.154297" xlink:href="#DejaVuSans-45"/>
      <use x="344.238281" xlink:href="#DejaVuSans-49"/>
      <use x="407.861328" xlink:href="#DejaVuSans-46"/>
      <use x="439.648438" xlink:href="#DejaVuSans-56"/>
      <use x="503.271484" xlink:href="#DejaVuSans-54"/>
      <use x="566.894531" xlink:href="#DejaVuSans-53"/>
      <use x="630.517578" xlink:href="#DejaVuSans-50"/>
      <use x="694.140625" xlink:href="#DejaVuSans-51"/>
      <use x="757.763672" xlink:href="#DejaVuSans-52"/>
      <use x="821.386719" xlink:href="#DejaVuSans-57"/>
      <use x="885.009766" xlink:href="#DejaVuSans-57"/>
      <use x="948.632812" xlink:href="#DejaVuSans-48"/>
      <use x="1012.255859" xlink:href="#DejaVuSans-56"/>
      <use x="1075.878906" xlink:href="#DejaVuSans-51"/>
      <use x="1139.501953" xlink:href="#DejaVuSans-51"/>
      <use x="1203.125" xlink:href="#DejaVuSans-49"/>
      <use x="1266.748047" xlink:href="#DejaVuSans-54"/>
      <use x="1330.371094" xlink:href="#DejaVuSans-53"/>
      <use x="1393.994141" xlink:href="#DejaVuSans-52"/>
     </g>
    </g>
    <g id="line2d_32">
     <path d="M 225.595 151.770188 
L 245.595 151.770188 
" style="fill:none;stroke:#d62728;stroke-linecap:square;stroke-width:1.5;"/>
    </g>
    <g id="line2d_33"/>
    <g id="text_21">
     <!-- mu = 0.3891515107280147 -->
     <g transform="translate(253.595 155.270188)scale(0.1 -0.1)">
      <use xlink:href="#DejaVuSans-109"/>
      <use x="97.412109" xlink:href="#DejaVuSans-117"/>
      <use x="160.791016" xlink:href="#DejaVuSans-32"/>
      <use x="192.578125" xlink:href="#DejaVuSans-61"/>
      <use x="276.367188" xlink:href="#DejaVuSans-32"/>
      <use x="308.154297" xlink:href="#DejaVuSans-48"/>
      <use x="371.777344" xlink:href="#DejaVuSans-46"/>
      <use x="403.564453" xlink:href="#DejaVuSans-51"/>
      <use x="467.1875" xlink:href="#DejaVuSans-56"/>
      <use x="530.810547" xlink:href="#DejaVuSans-57"/>
      <use x="594.433594" xlink:href="#DejaVuSans-49"/>
      <use x="658.056641" xlink:href="#DejaVuSans-53"/>
      <use x="721.679688" xlink:href="#DejaVuSans-49"/>
      <use x="785.302734" xlink:href="#DejaVuSans-53"/>
      <use x="848.925781" xlink:href="#DejaVuSans-49"/>
      <use x="912.548828" xlink:href="#DejaVuSans-48"/>
      <use x="976.171875" xlink:href="#DejaVuSans-55"/>
      <use x="1039.794922" xlink:href="#DejaVuSans-50"/>
      <use x="1103.417969" xlink:href="#DejaVuSans-56"/>
      <use x="1167.041016" xlink:href="#DejaVuSans-48"/>
      <use x="1230.664062" xlink:href="#DejaVuSans-49"/>
      <use x="1294.287109" xlink:href="#DejaVuSans-52"/>
      <use x="1357.910156" xlink:href="#DejaVuSans-55"/>
     </g>
    </g>
    <g id="line2d_34">
     <path d="M 225.595 166.448313 
L 245.595 166.448313 
" style="fill:none;stroke:#9467bd;stroke-linecap:square;stroke-width:1.5;"/>
    </g>
    <g id="line2d_35"/>
    <g id="text_22">
     <!-- mu = 1.459780257697219 -->
     <g transform="translate(253.595 169.948313)scale(0.1 -0.1)">
      <use xlink:href="#DejaVuSans-109"/>
      <use x="97.412109" xlink:href="#DejaVuSans-117"/>
      <use x="160.791016" xlink:href="#DejaVuSans-32"/>
      <use x="192.578125" xlink:href="#DejaVuSans-61"/>
      <use x="276.367188" xlink:href="#DejaVuSans-32"/>
      <use x="308.154297" xlink:href="#DejaVuSans-49"/>
      <use x="371.777344" xlink:href="#DejaVuSans-46"/>
      <use x="403.564453" xlink:href="#DejaVuSans-52"/>
      <use x="467.1875" xlink:href="#DejaVuSans-53"/>
      <use x="530.810547" xlink:href="#DejaVuSans-57"/>
      <use x="594.433594" xlink:href="#DejaVuSans-55"/>
      <use x="658.056641" xlink:href="#DejaVuSans-56"/>
      <use x="721.679688" xlink:href="#DejaVuSans-48"/>
      <use x="785.302734" xlink:href="#DejaVuSans-50"/>
      <use x="848.925781" xlink:href="#DejaVuSans-53"/>
      <use x="912.548828" xlink:href="#DejaVuSans-55"/>
      <use x="976.171875" xlink:href="#DejaVuSans-54"/>
      <use x="1039.794922" xlink:href="#DejaVuSans-57"/>
      <use x="1103.417969" xlink:href="#DejaVuSans-55"/>
      <use x="1167.041016" xlink:href="#DejaVuSans-50"/>
      <use x="1230.664062" xlink:href="#DejaVuSans-49"/>
      <use x="1294.287109" xlink:href="#DejaVuSans-57"/>
     </g>
    </g>
    <g id="line2d_36">
     <path d="M 225.595 181.126438 
L 245.595 181.126438 
" style="fill:none;stroke:#8c564b;stroke-linecap:square;stroke-width:1.5;"/>
    </g>
    <g id="line2d_37"/>
    <g id="text_23">
     <!-- mu = -0.3603192684147145 -->
     <g transform="translate(253.595 184.626438)scale(0.1 -0.1)">
      <use xlink:href="#DejaVuSans-109"/>
      <use x="97.412109" xlink:href="#DejaVuSans-117"/>
      <use x="160.791016" xlink:href="#DejaVuSans-32"/>
      <use x="192.578125" xlink:href="#DejaVuSans-61"/>
      <use x="276.367188" xlink:href="#DejaVuSans-32"/>
      <use x="308.154297" xlink:href="#DejaVuSans-45"/>
      <use x="344.238281" xlink:href="#DejaVuSans-48"/>
      <use x="407.861328" xlink:href="#DejaVuSans-46"/>
      <use x="439.648438" xlink:href="#DejaVuSans-51"/>
      <use x="503.271484" xlink:href="#DejaVuSans-54"/>
      <use x="566.894531" xlink:href="#DejaVuSans-48"/>
      <use x="630.517578" xlink:href="#DejaVuSans-51"/>
      <use x="694.140625" xlink:href="#DejaVuSans-49"/>
      <use x="757.763672" xlink:href="#DejaVuSans-57"/>
      <use x="821.386719" xlink:href="#DejaVuSans-50"/>
      <use x="885.009766" xlink:href="#DejaVuSans-54"/>
      <use x="948.632812" xlink:href="#DejaVuSans-56"/>
      <use x="1012.255859" xlink:href="#DejaVuSans-52"/>
      <use x="1075.878906" xlink:href="#DejaVuSans-49"/>
      <use x="1139.501953" xlink:href="#DejaVuSans-52"/>
      <use x="1203.125" xlink:href="#DejaVuSans-55"/>
      <use x="1266.748047" xlink:href="#DejaVuSans-49"/>
      <use x="1330.371094" xlink:href="#DejaVuSans-52"/>
      <use x="1393.994141" xlink:href="#DejaVuSans-53"/>
     </g>
    </g>
    <g id="line2d_38">
     <path d="M 225.595 195.804563 
L 245.595 195.804563 
" style="fill:none;stroke:#e377c2;stroke-linecap:square;stroke-width:1.5;"/>
    </g>
    <g id="line2d_39"/>
    <g id="text_24">
     <!-- mu = -0.4526924087805008 -->
     <g transform="translate(253.595 199.304563)scale(0.1 -0.1)">
      <use xlink:href="#DejaVuSans-109"/>
      <use x="97.412109" xlink:href="#DejaVuSans-117"/>
      <use x="160.791016" xlink:href="#DejaVuSans-32"/>
      <use x="192.578125" xlink:href="#DejaVuSans-61"/>
      <use x="276.367188" xlink:href="#DejaVuSans-32"/>
      <use x="308.154297" xlink:href="#DejaVuSans-45"/>
      <use x="344.238281" xlink:href="#DejaVuSans-48"/>
      <use x="407.861328" xlink:href="#DejaVuSans-46"/>
      <use x="439.648438" xlink:href="#DejaVuSans-52"/>
      <use x="503.271484" xlink:href="#DejaVuSans-53"/>
      <use x="566.894531" xlink:href="#DejaVuSans-50"/>
      <use x="630.517578" xlink:href="#DejaVuSans-54"/>
      <use x="694.140625" xlink:href="#DejaVuSans-57"/>
      <use x="757.763672" xlink:href="#DejaVuSans-50"/>
      <use x="821.386719" xlink:href="#DejaVuSans-52"/>
      <use x="885.009766" xlink:href="#DejaVuSans-48"/>
      <use x="948.632812" xlink:href="#DejaVuSans-56"/>
      <use x="1012.255859" xlink:href="#DejaVuSans-55"/>
      <use x="1075.878906" xlink:href="#DejaVuSans-56"/>
      <use x="1139.501953" xlink:href="#DejaVuSans-48"/>
      <use x="1203.125" xlink:href="#DejaVuSans-53"/>
      <use x="1266.748047" xlink:href="#DejaVuSans-48"/>
      <use x="1330.371094" xlink:href="#DejaVuSans-48"/>
      <use x="1393.994141" xlink:href="#DejaVuSans-56"/>
     </g>
    </g>
    <g id="line2d_40">
     <path d="M 225.595 210.482687 
L 245.595 210.482687 
" style="fill:none;stroke:#7f7f7f;stroke-linecap:square;stroke-width:1.5;"/>
    </g>
    <g id="line2d_41"/>
    <g id="text_25">
     <!-- mu = 1.3758286362054974 -->
     <g transform="translate(253.595 213.982687)scale(0.1 -0.1)">
      <use xlink:href="#DejaVuSans-109"/>
      <use x="97.412109" xlink:href="#DejaVuSans-117"/>
      <use x="160.791016" xlink:href="#DejaVuSans-32"/>
      <use x="192.578125" xlink:href="#DejaVuSans-61"/>
      <use x="276.367188" xlink:href="#DejaVuSans-32"/>
      <use x="308.154297" xlink:href="#DejaVuSans-49"/>
      <use x="371.777344" xlink:href="#DejaVuSans-46"/>
      <use x="403.564453" xlink:href="#DejaVuSans-51"/>
      <use x="467.1875" xlink:href="#DejaVuSans-55"/>
      <use x="530.810547" xlink:href="#DejaVuSans-53"/>
      <use x="594.433594" xlink:href="#DejaVuSans-56"/>
      <use x="658.056641" xlink:href="#DejaVuSans-50"/>
      <use x="721.679688" xlink:href="#DejaVuSans-56"/>
      <use x="785.302734" xlink:href="#DejaVuSans-54"/>
      <use x="848.925781" xlink:href="#DejaVuSans-51"/>
      <use x="912.548828" xlink:href="#DejaVuSans-54"/>
      <use x="976.171875" xlink:href="#DejaVuSans-50"/>
      <use x="1039.794922" xlink:href="#DejaVuSans-48"/>
      <use x="1103.417969" xlink:href="#DejaVuSans-53"/>
      <use x="1167.041016" xlink:href="#DejaVuSans-52"/>
      <use x="1230.664062" xlink:href="#DejaVuSans-57"/>
      <use x="1294.287109" xlink:href="#DejaVuSans-55"/>
      <use x="1357.910156" xlink:href="#DejaVuSans-52"/>
     </g>
    </g>
    <g id="line2d_42">
     <path d="M 225.595 225.160813 
L 245.595 225.160813 
" style="fill:none;stroke:#bcbd22;stroke-linecap:square;stroke-width:1.5;"/>
    </g>
    <g id="line2d_43"/>
    <g id="text_26">
     <!-- mu = -0.14592734152972944 -->
     <g transform="translate(253.595 228.660813)scale(0.1 -0.1)">
      <use xlink:href="#DejaVuSans-109"/>
      <use x="97.412109" xlink:href="#DejaVuSans-117"/>
      <use x="160.791016" xlink:href="#DejaVuSans-32"/>
      <use x="192.578125" xlink:href="#DejaVuSans-61"/>
      <use x="276.367188" xlink:href="#DejaVuSans-32"/>
      <use x="308.154297" xlink:href="#DejaVuSans-45"/>
      <use x="344.238281" xlink:href="#DejaVuSans-48"/>
      <use x="407.861328" xlink:href="#DejaVuSans-46"/>
      <use x="439.648438" xlink:href="#DejaVuSans-49"/>
      <use x="503.271484" xlink:href="#DejaVuSans-52"/>
      <use x="566.894531" xlink:href="#DejaVuSans-53"/>
      <use x="630.517578" xlink:href="#DejaVuSans-57"/>
      <use x="694.140625" xlink:href="#DejaVuSans-50"/>
      <use x="757.763672" xlink:href="#DejaVuSans-55"/>
      <use x="821.386719" xlink:href="#DejaVuSans-51"/>
      <use x="885.009766" xlink:href="#DejaVuSans-52"/>
      <use x="948.632812" xlink:href="#DejaVuSans-49"/>
      <use x="1012.255859" xlink:href="#DejaVuSans-53"/>
      <use x="1075.878906" xlink:href="#DejaVuSans-50"/>
      <use x="1139.501953" xlink:href="#DejaVuSans-57"/>
      <use x="1203.125" xlink:href="#DejaVuSans-55"/>
      <use x="1266.748047" xlink:href="#DejaVuSans-50"/>
      <use x="1330.371094" xlink:href="#DejaVuSans-57"/>
      <use x="1393.994141" xlink:href="#DejaVuSans-52"/>
      <use x="1457.617188" xlink:href="#DejaVuSans-52"/>
     </g>
    </g>
    <g id="line2d_44">
     <path d="M 225.595 239.838937 
L 245.595 239.838937 
" style="fill:none;stroke:#17becf;stroke-linecap:square;stroke-width:1.5;"/>
    </g>
    <g id="line2d_45"/>
    <g id="text_27">
     <!-- mu = -1.4944530725036216 -->
     <g transform="translate(253.595 243.338937)scale(0.1 -0.1)">
      <use xlink:href="#DejaVuSans-109"/>
      <use x="97.412109" xlink:href="#DejaVuSans-117"/>
      <use x="160.791016" xlink:href="#DejaVuSans-32"/>
      <use x="192.578125" xlink:href="#DejaVuSans-61"/>
      <use x="276.367188" xlink:href="#DejaVuSans-32"/>
      <use x="308.154297" xlink:href="#DejaVuSans-45"/>
      <use x="344.238281" xlink:href="#DejaVuSans-49"/>
      <use x="407.861328" xlink:href="#DejaVuSans-46"/>
      <use x="439.648438" xlink:href="#DejaVuSans-52"/>
      <use x="503.271484" xlink:href="#DejaVuSans-57"/>
      <use x="566.894531" xlink:href="#DejaVuSans-52"/>
      <use x="630.517578" xlink:href="#DejaVuSans-52"/>
      <use x="694.140625" xlink:href="#DejaVuSans-53"/>
      <use x="757.763672" xlink:href="#DejaVuSans-51"/>
      <use x="821.386719" xlink:href="#DejaVuSans-48"/>
      <use x="885.009766" xlink:href="#DejaVuSans-55"/>
      <use x="948.632812" xlink:href="#DejaVuSans-50"/>
      <use x="1012.255859" xlink:href="#DejaVuSans-53"/>
      <use x="1075.878906" xlink:href="#DejaVuSans-48"/>
      <use x="1139.501953" xlink:href="#DejaVuSans-51"/>
      <use x="1203.125" xlink:href="#DejaVuSans-54"/>
      <use x="1266.748047" xlink:href="#DejaVuSans-50"/>
      <use x="1330.371094" xlink:href="#DejaVuSans-49"/>
      <use x="1393.994141" xlink:href="#DejaVuSans-54"/>
     </g>
    </g>
   </g>
  </g>
 </g>
 <defs>
  <clipPath id="pc8930345fa">
   <rect height="266.112" width="357.12" x="57.6" y="41.472"/>
  </clipPath>
 </defs>
</svg>
