<?xml version="1.0" encoding="utf-8" standalone="no"?>
<!DOCTYPE svg PUBLIC "-//W3C//DTD SVG 1.1//EN"
  "http://www.w3.org/Graphics/SVG/1.1/DTD/svg11.dtd">
<!-- Created with matplotlib (https://matplotlib.org/) -->
<svg height="345.6pt" version="1.1" viewBox="0 0 460.8 345.6" width="460.8pt" xmlns="http://www.w3.org/2000/svg" xmlns:xlink="http://www.w3.org/1999/xlink">
 <defs>
  <style type="text/css">
*{stroke-linecap:butt;stroke-linejoin:round;}
  </style>
 </defs>
 <g id="figure_1">
  <g id="patch_1">
   <path d="M 0 345.6 
L 460.8 345.6 
L 460.8 0 
L 0 0 
z
" style="fill:#ffffff;"/>
  </g>
  <g id="axes_1">
   <g id="patch_2">
    <path d="M 57.6 307.584 
L 414.72 307.584 
L 414.72 41.472 
L 57.6 41.472 
z
" style="fill:#ffffff;"/>
   </g>
   <g id="matplotlib.axis_1">
    <g id="xtick_1">
     <g id="line2d_1">
      <defs>
       <path d="M 0 0 
L 0 3.5 
" id="m2e6cc4c7b7" style="stroke:#000000;stroke-width:0.8;"/>
      </defs>
      <g>
       <use style="stroke:#000000;stroke-width:0.8;" x="73.832727" xlink:href="#m2e6cc4c7b7" y="307.584"/>
      </g>
     </g>
     <g id="text_1">
      <!-- 0 -->
      <defs>
       <path d="M 31.78125 66.40625 
Q 24.171875 66.40625 20.328125 58.90625 
Q 16.5 51.421875 16.5 36.375 
Q 16.5 21.390625 20.328125 13.890625 
Q 24.171875 6.390625 31.78125 6.390625 
Q 39.453125 6.390625 43.28125 13.890625 
Q 47.125 21.390625 47.125 36.375 
Q 47.125 51.421875 43.28125 58.90625 
Q 39.453125 66.40625 31.78125 66.40625 
z
M 31.78125 74.21875 
Q 44.046875 74.21875 50.515625 64.515625 
Q 56.984375 54.828125 56.984375 36.375 
Q 56.984375 17.96875 50.515625 8.265625 
Q 44.046875 -1.421875 31.78125 -1.421875 
Q 19.53125 -1.421875 13.0625 8.265625 
Q 6.59375 17.96875 6.59375 36.375 
Q 6.59375 54.828125 13.0625 64.515625 
Q 19.53125 74.21875 31.78125 74.21875 
z
" id="DejaVuSans-48"/>
      </defs>
      <g transform="translate(70.651477 322.182437)scale(0.1 -0.1)">
       <use xlink:href="#DejaVuSans-48"/>
      </g>
     </g>
    </g>
    <g id="xtick_2">
     <g id="line2d_2">
      <g>
       <use style="stroke:#000000;stroke-width:0.8;" x="114.424693" xlink:href="#m2e6cc4c7b7" y="307.584"/>
      </g>
     </g>
     <g id="text_2">
      <!-- 500 -->
      <defs>
       <path d="M 10.796875 72.90625 
L 49.515625 72.90625 
L 49.515625 64.59375 
L 19.828125 64.59375 
L 19.828125 46.734375 
Q 21.96875 47.46875 24.109375 47.828125 
Q 26.265625 48.1875 28.421875 48.1875 
Q 40.625 48.1875 47.75 41.5 
Q 54.890625 34.8125 54.890625 23.390625 
Q 54.890625 11.625 47.5625 5.09375 
Q 40.234375 -1.421875 26.90625 -1.421875 
Q 22.3125 -1.421875 17.546875 -0.640625 
Q 12.796875 0.140625 7.71875 1.703125 
L 7.71875 11.625 
Q 12.109375 9.234375 16.796875 8.0625 
Q 21.484375 6.890625 26.703125 6.890625 
Q 35.15625 6.890625 40.078125 11.328125 
Q 45.015625 15.765625 45.015625 23.390625 
Q 45.015625 31 40.078125 35.4375 
Q 35.15625 39.890625 26.703125 39.890625 
Q 22.75 39.890625 18.8125 39.015625 
Q 14.890625 38.140625 10.796875 36.28125 
z
" id="DejaVuSans-53"/>
      </defs>
      <g transform="translate(104.880943 322.182437)scale(0.1 -0.1)">
       <use xlink:href="#DejaVuSans-53"/>
       <use x="63.623047" xlink:href="#DejaVuSans-48"/>
       <use x="127.246094" xlink:href="#DejaVuSans-48"/>
      </g>
     </g>
    </g>
    <g id="xtick_3">
     <g id="line2d_3">
      <g>
       <use style="stroke:#000000;stroke-width:0.8;" x="155.01666" xlink:href="#m2e6cc4c7b7" y="307.584"/>
      </g>
     </g>
     <g id="text_3">
      <!-- 1000 -->
      <defs>
       <path d="M 12.40625 8.296875 
L 28.515625 8.296875 
L 28.515625 63.921875 
L 10.984375 60.40625 
L 10.984375 69.390625 
L 28.421875 72.90625 
L 38.28125 72.90625 
L 38.28125 8.296875 
L 54.390625 8.296875 
L 54.390625 0 
L 12.40625 0 
z
" id="DejaVuSans-49"/>
      </defs>
      <g transform="translate(142.29166 322.182437)scale(0.1 -0.1)">
       <use xlink:href="#DejaVuSans-49"/>
       <use x="63.623047" xlink:href="#DejaVuSans-48"/>
       <use x="127.246094" xlink:href="#DejaVuSans-48"/>
       <use x="190.869141" xlink:href="#DejaVuSans-48"/>
      </g>
     </g>
    </g>
    <g id="xtick_4">
     <g id="line2d_4">
      <g>
       <use style="stroke:#000000;stroke-width:0.8;" x="195.608626" xlink:href="#m2e6cc4c7b7" y="307.584"/>
      </g>
     </g>
     <g id="text_4">
      <!-- 1500 -->
      <g transform="translate(182.883626 322.182437)scale(0.1 -0.1)">
       <use xlink:href="#DejaVuSans-49"/>
       <use x="63.623047" xlink:href="#DejaVuSans-53"/>
       <use x="127.246094" xlink:href="#DejaVuSans-48"/>
       <use x="190.869141" xlink:href="#DejaVuSans-48"/>
      </g>
     </g>
    </g>
    <g id="xtick_5">
     <g id="line2d_5">
      <g>
       <use style="stroke:#000000;stroke-width:0.8;" x="236.200592" xlink:href="#m2e6cc4c7b7" y="307.584"/>
      </g>
     </g>
     <g id="text_5">
      <!-- 2000 -->
      <defs>
       <path d="M 19.1875 8.296875 
L 53.609375 8.296875 
L 53.609375 0 
L 7.328125 0 
L 7.328125 8.296875 
Q 12.9375 14.109375 22.625 23.890625 
Q 32.328125 33.6875 34.8125 36.53125 
Q 39.546875 41.84375 41.421875 45.53125 
Q 43.3125 49.21875 43.3125 52.78125 
Q 43.3125 58.59375 39.234375 62.25 
Q 35.15625 65.921875 28.609375 65.921875 
Q 23.96875 65.921875 18.8125 64.3125 
Q 13.671875 62.703125 7.8125 59.421875 
L 7.8125 69.390625 
Q 13.765625 71.78125 18.9375 73 
Q 24.125 74.21875 28.421875 74.21875 
Q 39.75 74.21875 46.484375 68.546875 
Q 53.21875 62.890625 53.21875 53.421875 
Q 53.21875 48.921875 51.53125 44.890625 
Q 49.859375 40.875 45.40625 35.40625 
Q 44.1875 33.984375 37.640625 27.21875 
Q 31.109375 20.453125 19.1875 8.296875 
z
" id="DejaVuSans-50"/>
      </defs>
      <g transform="translate(223.475592 322.182437)scale(0.1 -0.1)">
       <use xlink:href="#DejaVuSans-50"/>
       <use x="63.623047" xlink:href="#DejaVuSans-48"/>
       <use x="127.246094" xlink:href="#DejaVuSans-48"/>
       <use x="190.869141" xlink:href="#DejaVuSans-48"/>
      </g>
     </g>
    </g>
    <g id="xtick_6">
     <g id="line2d_6">
      <g>
       <use style="stroke:#000000;stroke-width:0.8;" x="276.792558" xlink:href="#m2e6cc4c7b7" y="307.584"/>
      </g>
     </g>
     <g id="text_6">
      <!-- 2500 -->
      <g transform="translate(264.067558 322.182437)scale(0.1 -0.1)">
       <use xlink:href="#DejaVuSans-50"/>
       <use x="63.623047" xlink:href="#DejaVuSans-53"/>
       <use x="127.246094" xlink:href="#DejaVuSans-48"/>
       <use x="190.869141" xlink:href="#DejaVuSans-48"/>
      </g>
     </g>
    </g>
    <g id="xtick_7">
     <g id="line2d_7">
      <g>
       <use style="stroke:#000000;stroke-width:0.8;" x="317.384524" xlink:href="#m2e6cc4c7b7" y="307.584"/>
      </g>
     </g>
     <g id="text_7">
      <!-- 3000 -->
      <defs>
       <path d="M 40.578125 39.3125 
Q 47.65625 37.796875 51.625 33 
Q 55.609375 28.21875 55.609375 21.1875 
Q 55.609375 10.40625 48.1875 4.484375 
Q 40.765625 -1.421875 27.09375 -1.421875 
Q 22.515625 -1.421875 17.65625 -0.515625 
Q 12.796875 0.390625 7.625 2.203125 
L 7.625 11.71875 
Q 11.71875 9.328125 16.59375 8.109375 
Q 21.484375 6.890625 26.8125 6.890625 
Q 36.078125 6.890625 40.9375 10.546875 
Q 45.796875 14.203125 45.796875 21.1875 
Q 45.796875 27.640625 41.28125 31.265625 
Q 36.765625 34.90625 28.71875 34.90625 
L 20.21875 34.90625 
L 20.21875 43.015625 
L 29.109375 43.015625 
Q 36.375 43.015625 40.234375 45.921875 
Q 44.09375 48.828125 44.09375 54.296875 
Q 44.09375 59.90625 40.109375 62.90625 
Q 36.140625 65.921875 28.71875 65.921875 
Q 24.65625 65.921875 20.015625 65.03125 
Q 15.375 64.15625 9.8125 62.3125 
L 9.8125 71.09375 
Q 15.4375 72.65625 20.34375 73.4375 
Q 25.25 74.21875 29.59375 74.21875 
Q 40.828125 74.21875 47.359375 69.109375 
Q 53.90625 64.015625 53.90625 55.328125 
Q 53.90625 49.265625 50.4375 45.09375 
Q 46.96875 40.921875 40.578125 39.3125 
z
" id="DejaVuSans-51"/>
      </defs>
      <g transform="translate(304.659524 322.182437)scale(0.1 -0.1)">
       <use xlink:href="#DejaVuSans-51"/>
       <use x="63.623047" xlink:href="#DejaVuSans-48"/>
       <use x="127.246094" xlink:href="#DejaVuSans-48"/>
       <use x="190.869141" xlink:href="#DejaVuSans-48"/>
      </g>
     </g>
    </g>
    <g id="xtick_8">
     <g id="line2d_8">
      <g>
       <use style="stroke:#000000;stroke-width:0.8;" x="357.97649" xlink:href="#m2e6cc4c7b7" y="307.584"/>
      </g>
     </g>
     <g id="text_8">
      <!-- 3500 -->
      <g transform="translate(345.25149 322.182437)scale(0.1 -0.1)">
       <use xlink:href="#DejaVuSans-51"/>
       <use x="63.623047" xlink:href="#DejaVuSans-53"/>
       <use x="127.246094" xlink:href="#DejaVuSans-48"/>
       <use x="190.869141" xlink:href="#DejaVuSans-48"/>
      </g>
     </g>
    </g>
    <g id="xtick_9">
     <g id="line2d_9">
      <g>
       <use style="stroke:#000000;stroke-width:0.8;" x="398.568457" xlink:href="#m2e6cc4c7b7" y="307.584"/>
      </g>
     </g>
     <g id="text_9">
      <!-- 4000 -->
      <defs>
       <path d="M 37.796875 64.3125 
L 12.890625 25.390625 
L 37.796875 25.390625 
z
M 35.203125 72.90625 
L 47.609375 72.90625 
L 47.609375 25.390625 
L 58.015625 25.390625 
L 58.015625 17.1875 
L 47.609375 17.1875 
L 47.609375 0 
L 37.796875 0 
L 37.796875 17.1875 
L 4.890625 17.1875 
L 4.890625 26.703125 
z
" id="DejaVuSans-52"/>
      </defs>
      <g transform="translate(385.843457 322.182437)scale(0.1 -0.1)">
       <use xlink:href="#DejaVuSans-52"/>
       <use x="63.623047" xlink:href="#DejaVuSans-48"/>
       <use x="127.246094" xlink:href="#DejaVuSans-48"/>
       <use x="190.869141" xlink:href="#DejaVuSans-48"/>
      </g>
     </g>
    </g>
    <g id="text_10">
     <!-- P(It = i) -->
     <defs>
      <path d="M 19.671875 64.796875 
L 19.671875 37.40625 
L 32.078125 37.40625 
Q 38.96875 37.40625 42.71875 40.96875 
Q 46.484375 44.53125 46.484375 51.125 
Q 46.484375 57.671875 42.71875 61.234375 
Q 38.96875 64.796875 32.078125 64.796875 
z
M 9.8125 72.90625 
L 32.078125 72.90625 
Q 44.34375 72.90625 50.609375 67.359375 
Q 56.890625 61.8125 56.890625 51.125 
Q 56.890625 40.328125 50.609375 34.8125 
Q 44.34375 29.296875 32.078125 29.296875 
L 19.671875 29.296875 
L 19.671875 0 
L 9.8125 0 
z
" id="DejaVuSans-80"/>
      <path d="M 31 75.875 
Q 24.46875 64.65625 21.28125 53.65625 
Q 18.109375 42.671875 18.109375 31.390625 
Q 18.109375 20.125 21.3125 9.0625 
Q 24.515625 -2 31 -13.1875 
L 23.1875 -13.1875 
Q 15.875 -1.703125 12.234375 9.375 
Q 8.59375 20.453125 8.59375 31.390625 
Q 8.59375 42.28125 12.203125 53.3125 
Q 15.828125 64.359375 23.1875 75.875 
z
" id="DejaVuSans-40"/>
      <path d="M 9.8125 72.90625 
L 19.671875 72.90625 
L 19.671875 0 
L 9.8125 0 
z
" id="DejaVuSans-73"/>
      <path d="M 18.3125 70.21875 
L 18.3125 54.6875 
L 36.8125 54.6875 
L 36.8125 47.703125 
L 18.3125 47.703125 
L 18.3125 18.015625 
Q 18.3125 11.328125 20.140625 9.421875 
Q 21.96875 7.515625 27.59375 7.515625 
L 36.8125 7.515625 
L 36.8125 0 
L 27.59375 0 
Q 17.1875 0 13.234375 3.875 
Q 9.28125 7.765625 9.28125 18.015625 
L 9.28125 47.703125 
L 2.6875 47.703125 
L 2.6875 54.6875 
L 9.28125 54.6875 
L 9.28125 70.21875 
z
" id="DejaVuSans-116"/>
      <path id="DejaVuSans-32"/>
      <path d="M 10.59375 45.40625 
L 73.1875 45.40625 
L 73.1875 37.203125 
L 10.59375 37.203125 
z
M 10.59375 25.484375 
L 73.1875 25.484375 
L 73.1875 17.1875 
L 10.59375 17.1875 
z
" id="DejaVuSans-61"/>
      <path d="M 9.421875 54.6875 
L 18.40625 54.6875 
L 18.40625 0 
L 9.421875 0 
z
M 9.421875 75.984375 
L 18.40625 75.984375 
L 18.40625 64.59375 
L 9.421875 64.59375 
z
" id="DejaVuSans-105"/>
      <path d="M 8.015625 75.875 
L 15.828125 75.875 
Q 23.140625 64.359375 26.78125 53.3125 
Q 30.421875 42.28125 30.421875 31.390625 
Q 30.421875 20.453125 26.78125 9.375 
Q 23.140625 -1.703125 15.828125 -13.1875 
L 8.015625 -13.1875 
Q 14.5 -2 17.703125 9.0625 
Q 20.90625 20.125 20.90625 31.390625 
Q 20.90625 42.671875 17.703125 53.65625 
Q 14.5 64.65625 8.015625 75.875 
z
" id="DejaVuSans-41"/>
     </defs>
     <g transform="translate(217.051406 335.860562)scale(0.1 -0.1)">
      <use xlink:href="#DejaVuSans-80"/>
      <use x="60.302734" xlink:href="#DejaVuSans-40"/>
      <use x="99.316406" xlink:href="#DejaVuSans-73"/>
      <use x="128.808594" xlink:href="#DejaVuSans-116"/>
      <use x="168.017578" xlink:href="#DejaVuSans-32"/>
      <use x="199.804688" xlink:href="#DejaVuSans-61"/>
      <use x="283.59375" xlink:href="#DejaVuSans-32"/>
      <use x="315.380859" xlink:href="#DejaVuSans-105"/>
      <use x="343.164062" xlink:href="#DejaVuSans-41"/>
     </g>
    </g>
   </g>
   <g id="matplotlib.axis_2">
    <g id="ytick_1">
     <g id="line2d_10">
      <defs>
       <path d="M 0 0 
L -3.5 0 
" id="m4c6ded760f" style="stroke:#000000;stroke-width:0.8;"/>
      </defs>
      <g>
       <use style="stroke:#000000;stroke-width:0.8;" x="57.6" xlink:href="#m4c6ded760f" y="295.508797"/>
      </g>
     </g>
     <g id="text_11">
      <!-- 0.0 -->
      <defs>
       <path d="M 10.6875 12.40625 
L 21 12.40625 
L 21 0 
L 10.6875 0 
z
" id="DejaVuSans-46"/>
      </defs>
      <g transform="translate(34.696875 299.308016)scale(0.1 -0.1)">
       <use xlink:href="#DejaVuSans-48"/>
       <use x="63.623047" xlink:href="#DejaVuSans-46"/>
       <use x="95.410156" xlink:href="#DejaVuSans-48"/>
      </g>
     </g>
    </g>
    <g id="ytick_2">
     <g id="line2d_11">
      <g>
       <use style="stroke:#000000;stroke-width:0.8;" x="57.6" xlink:href="#m4c6ded760f" y="244.196689"/>
      </g>
     </g>
     <g id="text_12">
      <!-- 0.2 -->
      <g transform="translate(34.696875 247.995907)scale(0.1 -0.1)">
       <use xlink:href="#DejaVuSans-48"/>
       <use x="63.623047" xlink:href="#DejaVuSans-46"/>
       <use x="95.410156" xlink:href="#DejaVuSans-50"/>
      </g>
     </g>
    </g>
    <g id="ytick_3">
     <g id="line2d_12">
      <g>
       <use style="stroke:#000000;stroke-width:0.8;" x="57.6" xlink:href="#m4c6ded760f" y="192.88458"/>
      </g>
     </g>
     <g id="text_13">
      <!-- 0.4 -->
      <g transform="translate(34.696875 196.683798)scale(0.1 -0.1)">
       <use xlink:href="#DejaVuSans-48"/>
       <use x="63.623047" xlink:href="#DejaVuSans-46"/>
       <use x="95.410156" xlink:href="#DejaVuSans-52"/>
      </g>
     </g>
    </g>
    <g id="ytick_4">
     <g id="line2d_13">
      <g>
       <use style="stroke:#000000;stroke-width:0.8;" x="57.6" xlink:href="#m4c6ded760f" y="141.572471"/>
      </g>
     </g>
     <g id="text_14">
      <!-- 0.6 -->
      <defs>
       <path d="M 33.015625 40.375 
Q 26.375 40.375 22.484375 35.828125 
Q 18.609375 31.296875 18.609375 23.390625 
Q 18.609375 15.53125 22.484375 10.953125 
Q 26.375 6.390625 33.015625 6.390625 
Q 39.65625 6.390625 43.53125 10.953125 
Q 47.40625 15.53125 47.40625 23.390625 
Q 47.40625 31.296875 43.53125 35.828125 
Q 39.65625 40.375 33.015625 40.375 
z
M 52.59375 71.296875 
L 52.59375 62.3125 
Q 48.875 64.0625 45.09375 64.984375 
Q 41.3125 65.921875 37.59375 65.921875 
Q 27.828125 65.921875 22.671875 59.328125 
Q 17.53125 52.734375 16.796875 39.40625 
Q 19.671875 43.65625 24.015625 45.921875 
Q 28.375 48.1875 33.59375 48.1875 
Q 44.578125 48.1875 50.953125 41.515625 
Q 57.328125 34.859375 57.328125 23.390625 
Q 57.328125 12.15625 50.6875 5.359375 
Q 44.046875 -1.421875 33.015625 -1.421875 
Q 20.359375 -1.421875 13.671875 8.265625 
Q 6.984375 17.96875 6.984375 36.375 
Q 6.984375 53.65625 15.1875 63.9375 
Q 23.390625 74.21875 37.203125 74.21875 
Q 40.921875 74.21875 44.703125 73.484375 
Q 48.484375 72.75 52.59375 71.296875 
z
" id="DejaVuSans-54"/>
      </defs>
      <g transform="translate(34.696875 145.37169)scale(0.1 -0.1)">
       <use xlink:href="#DejaVuSans-48"/>
       <use x="63.623047" xlink:href="#DejaVuSans-46"/>
       <use x="95.410156" xlink:href="#DejaVuSans-54"/>
      </g>
     </g>
    </g>
    <g id="ytick_5">
     <g id="line2d_14">
      <g>
       <use style="stroke:#000000;stroke-width:0.8;" x="57.6" xlink:href="#m4c6ded760f" y="90.260362"/>
      </g>
     </g>
     <g id="text_15">
      <!-- 0.8 -->
      <defs>
       <path d="M 31.78125 34.625 
Q 24.75 34.625 20.71875 30.859375 
Q 16.703125 27.09375 16.703125 20.515625 
Q 16.703125 13.921875 20.71875 10.15625 
Q 24.75 6.390625 31.78125 6.390625 
Q 38.8125 6.390625 42.859375 10.171875 
Q 46.921875 13.96875 46.921875 20.515625 
Q 46.921875 27.09375 42.890625 30.859375 
Q 38.875 34.625 31.78125 34.625 
z
M 21.921875 38.8125 
Q 15.578125 40.375 12.03125 44.71875 
Q 8.5 49.078125 8.5 55.328125 
Q 8.5 64.0625 14.71875 69.140625 
Q 20.953125 74.21875 31.78125 74.21875 
Q 42.671875 74.21875 48.875 69.140625 
Q 55.078125 64.0625 55.078125 55.328125 
Q 55.078125 49.078125 51.53125 44.71875 
Q 48 40.375 41.703125 38.8125 
Q 48.828125 37.15625 52.796875 32.3125 
Q 56.78125 27.484375 56.78125 20.515625 
Q 56.78125 9.90625 50.3125 4.234375 
Q 43.84375 -1.421875 31.78125 -1.421875 
Q 19.734375 -1.421875 13.25 4.234375 
Q 6.78125 9.90625 6.78125 20.515625 
Q 6.78125 27.484375 10.78125 32.3125 
Q 14.796875 37.15625 21.921875 38.8125 
z
M 18.3125 54.390625 
Q 18.3125 48.734375 21.84375 45.5625 
Q 25.390625 42.390625 31.78125 42.390625 
Q 38.140625 42.390625 41.71875 45.5625 
Q 45.3125 48.734375 45.3125 54.390625 
Q 45.3125 60.0625 41.71875 63.234375 
Q 38.140625 66.40625 31.78125 66.40625 
Q 25.390625 66.40625 21.84375 63.234375 
Q 18.3125 60.0625 18.3125 54.390625 
z
" id="DejaVuSans-56"/>
      </defs>
      <g transform="translate(34.696875 94.059581)scale(0.1 -0.1)">
       <use xlink:href="#DejaVuSans-48"/>
       <use x="63.623047" xlink:href="#DejaVuSans-46"/>
       <use x="95.410156" xlink:href="#DejaVuSans-56"/>
      </g>
     </g>
    </g>
    <g id="text_16">
     <!-- Number of Pulls (units of H1) -->
     <defs>
      <path d="M 9.8125 72.90625 
L 23.09375 72.90625 
L 55.421875 11.921875 
L 55.421875 72.90625 
L 64.984375 72.90625 
L 64.984375 0 
L 51.703125 0 
L 19.390625 60.984375 
L 19.390625 0 
L 9.8125 0 
z
" id="DejaVuSans-78"/>
      <path d="M 8.5 21.578125 
L 8.5 54.6875 
L 17.484375 54.6875 
L 17.484375 21.921875 
Q 17.484375 14.15625 20.5 10.265625 
Q 23.53125 6.390625 29.59375 6.390625 
Q 36.859375 6.390625 41.078125 11.03125 
Q 45.3125 15.671875 45.3125 23.6875 
L 45.3125 54.6875 
L 54.296875 54.6875 
L 54.296875 0 
L 45.3125 0 
L 45.3125 8.40625 
Q 42.046875 3.421875 37.71875 1 
Q 33.40625 -1.421875 27.6875 -1.421875 
Q 18.265625 -1.421875 13.375 4.4375 
Q 8.5 10.296875 8.5 21.578125 
z
M 31.109375 56 
z
" id="DejaVuSans-117"/>
      <path d="M 52 44.1875 
Q 55.375 50.25 60.0625 53.125 
Q 64.75 56 71.09375 56 
Q 79.640625 56 84.28125 50.015625 
Q 88.921875 44.046875 88.921875 33.015625 
L 88.921875 0 
L 79.890625 0 
L 79.890625 32.71875 
Q 79.890625 40.578125 77.09375 44.375 
Q 74.3125 48.1875 68.609375 48.1875 
Q 61.625 48.1875 57.5625 43.546875 
Q 53.515625 38.921875 53.515625 30.90625 
L 53.515625 0 
L 44.484375 0 
L 44.484375 32.71875 
Q 44.484375 40.625 41.703125 44.40625 
Q 38.921875 48.1875 33.109375 48.1875 
Q 26.21875 48.1875 22.15625 43.53125 
Q 18.109375 38.875 18.109375 30.90625 
L 18.109375 0 
L 9.078125 0 
L 9.078125 54.6875 
L 18.109375 54.6875 
L 18.109375 46.1875 
Q 21.1875 51.21875 25.484375 53.609375 
Q 29.78125 56 35.6875 56 
Q 41.65625 56 45.828125 52.96875 
Q 50 49.953125 52 44.1875 
z
" id="DejaVuSans-109"/>
      <path d="M 48.6875 27.296875 
Q 48.6875 37.203125 44.609375 42.84375 
Q 40.53125 48.484375 33.40625 48.484375 
Q 26.265625 48.484375 22.1875 42.84375 
Q 18.109375 37.203125 18.109375 27.296875 
Q 18.109375 17.390625 22.1875 11.75 
Q 26.265625 6.109375 33.40625 6.109375 
Q 40.53125 6.109375 44.609375 11.75 
Q 48.6875 17.390625 48.6875 27.296875 
z
M 18.109375 46.390625 
Q 20.953125 51.265625 25.265625 53.625 
Q 29.59375 56 35.59375 56 
Q 45.5625 56 51.78125 48.09375 
Q 58.015625 40.1875 58.015625 27.296875 
Q 58.015625 14.40625 51.78125 6.484375 
Q 45.5625 -1.421875 35.59375 -1.421875 
Q 29.59375 -1.421875 25.265625 0.953125 
Q 20.953125 3.328125 18.109375 8.203125 
L 18.109375 0 
L 9.078125 0 
L 9.078125 75.984375 
L 18.109375 75.984375 
z
" id="DejaVuSans-98"/>
      <path d="M 56.203125 29.59375 
L 56.203125 25.203125 
L 14.890625 25.203125 
Q 15.484375 15.921875 20.484375 11.0625 
Q 25.484375 6.203125 34.421875 6.203125 
Q 39.59375 6.203125 44.453125 7.46875 
Q 49.3125 8.734375 54.109375 11.28125 
L 54.109375 2.78125 
Q 49.265625 0.734375 44.1875 -0.34375 
Q 39.109375 -1.421875 33.890625 -1.421875 
Q 20.796875 -1.421875 13.15625 6.1875 
Q 5.515625 13.8125 5.515625 26.8125 
Q 5.515625 40.234375 12.765625 48.109375 
Q 20.015625 56 32.328125 56 
Q 43.359375 56 49.78125 48.890625 
Q 56.203125 41.796875 56.203125 29.59375 
z
M 47.21875 32.234375 
Q 47.125 39.59375 43.09375 43.984375 
Q 39.0625 48.390625 32.421875 48.390625 
Q 24.90625 48.390625 20.390625 44.140625 
Q 15.875 39.890625 15.1875 32.171875 
z
" id="DejaVuSans-101"/>
      <path d="M 41.109375 46.296875 
Q 39.59375 47.171875 37.8125 47.578125 
Q 36.03125 48 33.890625 48 
Q 26.265625 48 22.1875 43.046875 
Q 18.109375 38.09375 18.109375 28.8125 
L 18.109375 0 
L 9.078125 0 
L 9.078125 54.6875 
L 18.109375 54.6875 
L 18.109375 46.1875 
Q 20.953125 51.171875 25.484375 53.578125 
Q 30.03125 56 36.53125 56 
Q 37.453125 56 38.578125 55.875 
Q 39.703125 55.765625 41.0625 55.515625 
z
" id="DejaVuSans-114"/>
      <path d="M 30.609375 48.390625 
Q 23.390625 48.390625 19.1875 42.75 
Q 14.984375 37.109375 14.984375 27.296875 
Q 14.984375 17.484375 19.15625 11.84375 
Q 23.34375 6.203125 30.609375 6.203125 
Q 37.796875 6.203125 41.984375 11.859375 
Q 46.1875 17.53125 46.1875 27.296875 
Q 46.1875 37.015625 41.984375 42.703125 
Q 37.796875 48.390625 30.609375 48.390625 
z
M 30.609375 56 
Q 42.328125 56 49.015625 48.375 
Q 55.71875 40.765625 55.71875 27.296875 
Q 55.71875 13.875 49.015625 6.21875 
Q 42.328125 -1.421875 30.609375 -1.421875 
Q 18.84375 -1.421875 12.171875 6.21875 
Q 5.515625 13.875 5.515625 27.296875 
Q 5.515625 40.765625 12.171875 48.375 
Q 18.84375 56 30.609375 56 
z
" id="DejaVuSans-111"/>
      <path d="M 37.109375 75.984375 
L 37.109375 68.5 
L 28.515625 68.5 
Q 23.6875 68.5 21.796875 66.546875 
Q 19.921875 64.59375 19.921875 59.515625 
L 19.921875 54.6875 
L 34.71875 54.6875 
L 34.71875 47.703125 
L 19.921875 47.703125 
L 19.921875 0 
L 10.890625 0 
L 10.890625 47.703125 
L 2.296875 47.703125 
L 2.296875 54.6875 
L 10.890625 54.6875 
L 10.890625 58.5 
Q 10.890625 67.625 15.140625 71.796875 
Q 19.390625 75.984375 28.609375 75.984375 
z
" id="DejaVuSans-102"/>
      <path d="M 9.421875 75.984375 
L 18.40625 75.984375 
L 18.40625 0 
L 9.421875 0 
z
" id="DejaVuSans-108"/>
      <path d="M 44.28125 53.078125 
L 44.28125 44.578125 
Q 40.484375 46.53125 36.375 47.5 
Q 32.28125 48.484375 27.875 48.484375 
Q 21.1875 48.484375 17.84375 46.4375 
Q 14.5 44.390625 14.5 40.28125 
Q 14.5 37.15625 16.890625 35.375 
Q 19.28125 33.59375 26.515625 31.984375 
L 29.59375 31.296875 
Q 39.15625 29.25 43.1875 25.515625 
Q 47.21875 21.78125 47.21875 15.09375 
Q 47.21875 7.46875 41.1875 3.015625 
Q 35.15625 -1.421875 24.609375 -1.421875 
Q 20.21875 -1.421875 15.453125 -0.5625 
Q 10.6875 0.296875 5.421875 2 
L 5.421875 11.28125 
Q 10.40625 8.6875 15.234375 7.390625 
Q 20.0625 6.109375 24.8125 6.109375 
Q 31.15625 6.109375 34.5625 8.28125 
Q 37.984375 10.453125 37.984375 14.40625 
Q 37.984375 18.0625 35.515625 20.015625 
Q 33.0625 21.96875 24.703125 23.78125 
L 21.578125 24.515625 
Q 13.234375 26.265625 9.515625 29.90625 
Q 5.8125 33.546875 5.8125 39.890625 
Q 5.8125 47.609375 11.28125 51.796875 
Q 16.75 56 26.8125 56 
Q 31.78125 56 36.171875 55.265625 
Q 40.578125 54.546875 44.28125 53.078125 
z
" id="DejaVuSans-115"/>
      <path d="M 54.890625 33.015625 
L 54.890625 0 
L 45.90625 0 
L 45.90625 32.71875 
Q 45.90625 40.484375 42.875 44.328125 
Q 39.84375 48.1875 33.796875 48.1875 
Q 26.515625 48.1875 22.3125 43.546875 
Q 18.109375 38.921875 18.109375 30.90625 
L 18.109375 0 
L 9.078125 0 
L 9.078125 54.6875 
L 18.109375 54.6875 
L 18.109375 46.1875 
Q 21.34375 51.125 25.703125 53.5625 
Q 30.078125 56 35.796875 56 
Q 45.21875 56 50.046875 50.171875 
Q 54.890625 44.34375 54.890625 33.015625 
z
" id="DejaVuSans-110"/>
      <path d="M 9.8125 72.90625 
L 19.671875 72.90625 
L 19.671875 43.015625 
L 55.515625 43.015625 
L 55.515625 72.90625 
L 65.375 72.90625 
L 65.375 0 
L 55.515625 0 
L 55.515625 34.71875 
L 19.671875 34.71875 
L 19.671875 0 
L 9.8125 0 
z
" id="DejaVuSans-72"/>
     </defs>
     <g transform="translate(28.617187 246.898312)rotate(-90)scale(0.1 -0.1)">
      <use xlink:href="#DejaVuSans-78"/>
      <use x="74.804688" xlink:href="#DejaVuSans-117"/>
      <use x="138.183594" xlink:href="#DejaVuSans-109"/>
      <use x="235.595703" xlink:href="#DejaVuSans-98"/>
      <use x="299.072266" xlink:href="#DejaVuSans-101"/>
      <use x="360.595703" xlink:href="#DejaVuSans-114"/>
      <use x="401.708984" xlink:href="#DejaVuSans-32"/>
      <use x="433.496094" xlink:href="#DejaVuSans-111"/>
      <use x="494.677734" xlink:href="#DejaVuSans-102"/>
      <use x="529.882812" xlink:href="#DejaVuSans-32"/>
      <use x="561.669922" xlink:href="#DejaVuSans-80"/>
      <use x="621.957031" xlink:href="#DejaVuSans-117"/>
      <use x="685.335938" xlink:href="#DejaVuSans-108"/>
      <use x="713.119141" xlink:href="#DejaVuSans-108"/>
      <use x="740.902344" xlink:href="#DejaVuSans-115"/>
      <use x="793.001953" xlink:href="#DejaVuSans-32"/>
      <use x="824.789062" xlink:href="#DejaVuSans-40"/>
      <use x="863.802734" xlink:href="#DejaVuSans-117"/>
      <use x="927.181641" xlink:href="#DejaVuSans-110"/>
      <use x="990.560547" xlink:href="#DejaVuSans-105"/>
      <use x="1018.34375" xlink:href="#DejaVuSans-116"/>
      <use x="1057.552734" xlink:href="#DejaVuSans-115"/>
      <use x="1109.652344" xlink:href="#DejaVuSans-32"/>
      <use x="1141.439453" xlink:href="#DejaVuSans-111"/>
      <use x="1202.621094" xlink:href="#DejaVuSans-102"/>
      <use x="1237.826172" xlink:href="#DejaVuSans-32"/>
      <use x="1269.613281" xlink:href="#DejaVuSans-72"/>
      <use x="1344.808594" xlink:href="#DejaVuSans-49"/>
      <use x="1408.431641" xlink:href="#DejaVuSans-41"/>
     </g>
    </g>
   </g>
   <g id="line2d_15">
    <path clip-path="url(#p1470d81907)" d="M 73.832727 269.732145 
L 88.932939 272.345993 
L 102.815391 275.048731 
L 151.93167 284.909207 
L 163.540973 286.881289 
L 174.500803 288.517358 
L 185.298266 289.903005 
L 196.745201 291.140661 
L 208.273319 292.14559 
L 220.775645 293.008247 
L 234.414545 293.717824 
L 250.00186 294.300472 
L 268.511797 294.761522 
L 291.730402 295.106085 
L 323.473319 295.339224 
L 374.943932 295.468357 
L 398.487273 295.487978 
L 398.487273 295.487978 
" style="fill:none;stroke:#1f77b4;stroke-linecap:square;stroke-width:1.5;"/>
   </g>
   <g id="line2d_16">
    <path clip-path="url(#p1470d81907)" d="M 73.832727 269.866143 
L 73.995095 269.759042 
L 74.806934 269.812653 
L 90.475433 266.053143 
L 100.704609 264.076816 
L 104.357886 263.44353 
L 108.254715 262.797541 
L 115.886004 261.549512 
L 122.949006 260.615135 
L 129.687273 259.944078 
L 136.263171 259.510582 
L 142.757886 259.303805 
L 149.333784 259.31874 
L 155.990867 259.557401 
L 162.891501 260.028894 
L 170.198055 260.755182 
L 178.072896 261.76722 
L 185.78537 262.975303 
L 189.519831 263.753454 
L 198.774799 265.465219 
L 210.952389 267.888141 
L 213.550275 268.474126 
L 250.326596 275.825877 
L 265.020888 278.479634 
L 278.740973 280.732403 
L 292.217505 282.720572 
L 305.856406 284.507645 
L 319.901226 286.122432 
L 334.595518 287.585585 
L 350.101649 288.9036 
L 366.663171 290.086042 
L 384.60482 291.141692 
L 398.487273 291.821448 
L 398.487273 291.821448 
" style="fill:none;stroke:#ff7f0e;stroke-linecap:square;stroke-width:1.5;"/>
   </g>
   <g id="line2d_17">
    <path clip-path="url(#p1470d81907)" d="M 73.832727 269.866143 
L 73.913911 269.879528 
L 74.076279 269.77247 
L 87.30926 272.070202 
L 99.811586 274.469789 
L 117.672051 278.127091 
L 141.946047 283.056249 
L 154.854292 285.437777 
L 166.220042 287.310803 
L 177.098689 288.87824 
L 188.302072 290.262671 
L 199.424271 291.398281 
L 211.195941 292.37166 
L 222.155772 293.092565 
L 236.038224 293.79059 
L 251.869091 294.358164 
L 270.784947 294.805662 
L 294.653023 295.136987 
L 327.776068 295.358343 
L 383.062326 295.476651 
L 398.487273 295.488 
L 398.487273 295.488 
" style="fill:none;stroke:#2ca02c;stroke-linecap:square;stroke-width:1.5;"/>
   </g>
   <g id="line2d_18">
    <path clip-path="url(#p1470d81907)" d="M 73.832727 269.866143 
L 73.995095 269.8929 
L 74.157463 269.785884 
L 89.744778 272.470881 
L 103.789598 275.223193 
L 149.983256 284.543484 
L 161.754926 286.582823 
L 172.714757 288.257925 
L 183.51222 289.682452 
L 194.87797 290.951336 
L 206.243721 291.98022 
L 218.583679 292.870193 
L 231.979027 293.604107 
L 247.160423 294.207989 
L 265.020888 294.688898 
L 287.184101 295.053219 
L 316.978605 295.305858 
L 363.33463 295.452717 
L 398.487273 295.487954 
L 398.487273 295.487954 
" style="fill:none;stroke:#d62728;stroke-linecap:square;stroke-width:1.5;"/>
   </g>
   <g id="line2d_19">
    <path clip-path="url(#p1470d81907)" d="M 73.832727 269.866143 
L 74.076279 269.906258 
L 74.238647 269.799283 
L 74.725751 269.805924 
L 78.460211 268.302439 
L 82.35704 266.928453 
L 111.989175 256.867526 
L 120.351121 254.357673 
L 127.657674 252.394387 
L 134.314757 250.832265 
L 140.647104 249.573203 
L 146.735899 248.588056 
L 152.74351 247.842683 
L 158.669937 247.332026 
L 164.596364 247.0434 
L 170.603975 246.971578 
L 176.855137 247.121896 
L 183.349852 247.504837 
L 187.571416 247.935521 
L 205.594249 250.369931 
L 212.332516 251.602325 
L 222.561691 253.606376 
L 235.551121 256.392429 
L 260.068668 261.935753 
L 281.420042 266.653291 
L 297.413277 269.95954 
L 312.188753 272.788746 
L 326.558309 275.314643 
L 340.927865 277.614305 
L 355.459789 279.714744 
L 370.397632 281.648863 
L 385.903763 283.431335 
L 398.487273 284.722087 
L 398.487273 284.722087 
" style="fill:none;stroke:#9467bd;stroke-linecap:square;stroke-width:1.5;"/>
   </g>
   <g id="line2d_20">
    <path clip-path="url(#p1470d81907)" d="M 73.832727 269.866143 
L 74.157463 269.919602 
L 74.319831 269.812669 
L 87.633996 272.11758 
L 100.542241 274.604103 
L 118.970994 278.388026 
L 141.864863 283.034052 
L 154.773108 285.418331 
L 166.138858 287.293976 
L 177.017505 288.863925 
L 188.220888 290.250824 
L 199.343087 291.388647 
L 211.114757 292.363846 
L 222.074588 293.086563 
L 235.875856 293.782718 
L 251.706723 294.352754 
L 270.541395 294.800765 
L 294.328288 295.133518 
L 327.288964 295.356228 
L 382.088118 295.475739 
L 398.487273 295.487989 
L 398.487273 295.487989 
" style="fill:none;stroke:#8c564b;stroke-linecap:square;stroke-width:1.5;"/>
   </g>
   <g id="line2d_21">
    <path clip-path="url(#p1470d81907)" d="M 73.832727 269.866143 
L 74.238647 269.932932 
L 74.401015 269.826041 
L 87.390444 272.075896 
L 100.217505 274.542205 
L 118.402706 278.272146 
L 141.864863 283.035677 
L 154.773108 285.419646 
L 166.138858 287.295046 
L 177.017505 288.864791 
L 188.220888 290.251509 
L 199.343087 291.389184 
L 211.114757 292.364256 
L 222.074588 293.086879 
L 235.95704 293.786434 
L 251.787907 294.355312 
L 270.622579 294.80237 
L 294.490655 295.135208 
L 327.532516 295.35727 
L 382.575222 295.476194 
L 398.487273 295.487992 
L 398.487273 295.487992 
" style="fill:none;stroke:#e377c2;stroke-linecap:square;stroke-width:1.5;"/>
   </g>
   <g id="line2d_22">
    <path clip-path="url(#p1470d81907)" d="M 73.832727 269.866143 
L 74.319831 269.946248 
L 74.482199 269.839399 
L 74.725751 269.775764 
L 79.190867 267.439678 
L 83.493615 264.848087 
L 88.608203 261.347183 
L 93.560423 257.403404 
L 103.464863 249.017236 
L 117.184947 235.795458 
L 123.43611 229.285917 
L 130.336744 221.767895 
L 138.373953 212.667498 
L 149.171416 200.075561 
L 171.091078 174.446335 
L 179.940127 164.494999 
L 193.41666 149.78729 
L 200.23611 142.970453 
L 206.893192 136.62871 
L 216.148161 128.183328 
L 222.561691 122.80666 
L 228.894038 117.785557 
L 235.307569 112.984193 
L 241.721099 108.459357 
L 248.215814 104.147762 
L 254.791712 100.046873 
L 261.529979 96.106767 
L 268.430613 92.331257 
L 275.493615 88.722543 
L 282.718985 85.281424 
L 290.187907 81.972824 
L 297.819197 78.834998 
L 305.775222 75.805813 
L 313.974799 72.923049 
L 322.499112 70.163311 
L 331.348161 67.533501 
L 340.603129 65.017707 
L 350.264017 62.625182 
L 360.330825 60.36303 
L 370.884736 58.220654 
L 382.006934 56.191966 
L 393.697421 54.286999 
L 398.487273 53.568 
L 398.487273 53.568 
" style="fill:none;stroke:#7f7f7f;stroke-linecap:square;stroke-width:1.5;"/>
   </g>
   <g id="line2d_23">
    <path clip-path="url(#p1470d81907)" d="M 73.832727 269.866143 
L 74.401015 269.959551 
L 74.563383 269.852743 
L 77.486004 270.323664 
L 89.98833 272.549619 
L 104.276702 275.349041 
L 149.009049 284.37919 
L 160.861903 286.448288 
L 171.902918 288.151282 
L 182.700381 289.590891 
L 194.066131 290.875356 
L 205.431882 291.918515 
L 217.771839 292.822041 
L 231.086004 293.564157 
L 246.186216 294.177059 
L 263.884313 294.665259 
L 285.722791 295.03564 
L 314.949006 295.294529 
L 359.924905 295.44718 
L 398.487273 295.487981 
L 398.487273 295.487981 
" style="fill:none;stroke:#bcbd22;stroke-linecap:square;stroke-width:1.5;"/>
   </g>
   <g id="line2d_24">
    <path clip-path="url(#p1470d81907)" d="M 73.832727 269.866143 
L 74.482199 269.972839 
L 74.644567 269.866117 
L 87.065708 272.025698 
L 99.568034 274.421497 
L 117.184947 278.025911 
L 141.946047 283.056249 
L 154.854292 285.437777 
L 166.220042 287.310803 
L 177.098689 288.87824 
L 188.302072 290.262671 
L 199.424271 291.398281 
L 211.195941 292.37166 
L 222.155772 293.092565 
L 236.038224 293.79059 
L 251.869091 294.358164 
L 270.784947 294.805662 
L 294.653023 295.136987 
L 327.776068 295.358343 
L 383.062326 295.476651 
L 398.487273 295.488 
L 398.487273 295.488 
" style="fill:none;stroke:#17becf;stroke-linecap:square;stroke-width:1.5;"/>
   </g>
   <g id="patch_3">
    <path d="M 57.6 307.584 
L 57.6 41.472 
" style="fill:none;stroke:#000000;stroke-linecap:square;stroke-linejoin:miter;stroke-width:0.8;"/>
   </g>
   <g id="patch_4">
    <path d="M 414.72 307.584 
L 414.72 41.472 
" style="fill:none;stroke:#000000;stroke-linecap:square;stroke-linejoin:miter;stroke-width:0.8;"/>
   </g>
   <g id="patch_5">
    <path d="M 57.6 307.584 
L 414.72 307.584 
" style="fill:none;stroke:#000000;stroke-linecap:square;stroke-linejoin:miter;stroke-width:0.8;"/>
   </g>
   <g id="patch_6">
    <path d="M 57.6 41.472 
L 414.72 41.472 
" style="fill:none;stroke:#000000;stroke-linecap:square;stroke-linejoin:miter;stroke-width:0.8;"/>
   </g>
   <g id="legend_1">
    <g id="patch_7">
     <path d="M 223.595 249.418625 
L 407.72 249.418625 
Q 409.72 249.418625 409.72 247.418625 
L 409.72 101.637375 
Q 409.72 99.637375 407.72 99.637375 
L 223.595 99.637375 
Q 221.595 99.637375 221.595 101.637375 
L 221.595 247.418625 
Q 221.595 249.418625 223.595 249.418625 
z
" style="fill:#ffffff;opacity:0.8;stroke:#cccccc;stroke-linejoin:miter;"/>
    </g>
    <g id="line2d_25">
     <path d="M 225.595 107.735813 
L 245.595 107.735813 
" style="fill:none;stroke:#1f77b4;stroke-linecap:square;stroke-width:1.5;"/>
    </g>
    <g id="line2d_26"/>
    <g id="text_17">
     <!-- mu = -0.23357240691024106 -->
     <defs>
      <path d="M 4.890625 31.390625 
L 31.203125 31.390625 
L 31.203125 23.390625 
L 4.890625 23.390625 
z
" id="DejaVuSans-45"/>
      <path d="M 8.203125 72.90625 
L 55.078125 72.90625 
L 55.078125 68.703125 
L 28.609375 0 
L 18.3125 0 
L 43.21875 64.59375 
L 8.203125 64.59375 
z
" id="DejaVuSans-55"/>
      <path d="M 10.984375 1.515625 
L 10.984375 10.5 
Q 14.703125 8.734375 18.5 7.8125 
Q 22.3125 6.890625 25.984375 6.890625 
Q 35.75 6.890625 40.890625 13.453125 
Q 46.046875 20.015625 46.78125 33.40625 
Q 43.953125 29.203125 39.59375 26.953125 
Q 35.25 24.703125 29.984375 24.703125 
Q 19.046875 24.703125 12.671875 31.3125 
Q 6.296875 37.9375 6.296875 49.421875 
Q 6.296875 60.640625 12.9375 67.421875 
Q 19.578125 74.21875 30.609375 74.21875 
Q 43.265625 74.21875 49.921875 64.515625 
Q 56.59375 54.828125 56.59375 36.375 
Q 56.59375 19.140625 48.40625 8.859375 
Q 40.234375 -1.421875 26.421875 -1.421875 
Q 22.703125 -1.421875 18.890625 -0.6875 
Q 15.09375 0.046875 10.984375 1.515625 
z
M 30.609375 32.421875 
Q 37.25 32.421875 41.125 36.953125 
Q 45.015625 41.5 45.015625 49.421875 
Q 45.015625 57.28125 41.125 61.84375 
Q 37.25 66.40625 30.609375 66.40625 
Q 23.96875 66.40625 20.09375 61.84375 
Q 16.21875 57.28125 16.21875 49.421875 
Q 16.21875 41.5 20.09375 36.953125 
Q 23.96875 32.421875 30.609375 32.421875 
z
" id="DejaVuSans-57"/>
     </defs>
     <g transform="translate(253.595 111.235813)scale(0.1 -0.1)">
      <use xlink:href="#DejaVuSans-109"/>
      <use x="97.412109" xlink:href="#DejaVuSans-117"/>
      <use x="160.791016" xlink:href="#DejaVuSans-32"/>
      <use x="192.578125" xlink:href="#DejaVuSans-61"/>
      <use x="276.367188" xlink:href="#DejaVuSans-32"/>
      <use x="308.154297" xlink:href="#DejaVuSans-45"/>
      <use x="344.238281" xlink:href="#DejaVuSans-48"/>
      <use x="407.861328" xlink:href="#DejaVuSans-46"/>
      <use x="439.648438" xlink:href="#DejaVuSans-50"/>
      <use x="503.271484" xlink:href="#DejaVuSans-51"/>
      <use x="566.894531" xlink:href="#DejaVuSans-51"/>
      <use x="630.517578" xlink:href="#DejaVuSans-53"/>
      <use x="694.140625" xlink:href="#DejaVuSans-55"/>
      <use x="757.763672" xlink:href="#DejaVuSans-50"/>
      <use x="821.386719" xlink:href="#DejaVuSans-52"/>
      <use x="885.009766" xlink:href="#DejaVuSans-48"/>
      <use x="948.632812" xlink:href="#DejaVuSans-54"/>
      <use x="1012.255859" xlink:href="#DejaVuSans-57"/>
      <use x="1075.878906" xlink:href="#DejaVuSans-49"/>
      <use x="1139.501953" xlink:href="#DejaVuSans-48"/>
      <use x="1203.125" xlink:href="#DejaVuSans-50"/>
      <use x="1266.748047" xlink:href="#DejaVuSans-52"/>
      <use x="1330.371094" xlink:href="#DejaVuSans-49"/>
      <use x="1393.994141" xlink:href="#DejaVuSans-48"/>
      <use x="1457.617188" xlink:href="#DejaVuSans-54"/>
     </g>
    </g>
    <g id="line2d_27">
     <path d="M 225.595 122.413938 
L 245.595 122.413938 
" style="fill:none;stroke:#ff7f0e;stroke-linecap:square;stroke-width:1.5;"/>
    </g>
    <g id="line2d_28"/>
    <g id="text_18">
     <!-- mu = 1.3148217832550122 -->
     <g transform="translate(253.595 125.913938)scale(0.1 -0.1)">
      <use xlink:href="#DejaVuSans-109"/>
      <use x="97.412109" xlink:href="#DejaVuSans-117"/>
      <use x="160.791016" xlink:href="#DejaVuSans-32"/>
      <use x="192.578125" xlink:href="#DejaVuSans-61"/>
      <use x="276.367188" xlink:href="#DejaVuSans-32"/>
      <use x="308.154297" xlink:href="#DejaVuSans-49"/>
      <use x="371.777344" xlink:href="#DejaVuSans-46"/>
      <use x="403.564453" xlink:href="#DejaVuSans-51"/>
      <use x="467.1875" xlink:href="#DejaVuSans-49"/>
      <use x="530.810547" xlink:href="#DejaVuSans-52"/>
      <use x="594.433594" xlink:href="#DejaVuSans-56"/>
      <use x="658.056641" xlink:href="#DejaVuSans-50"/>
      <use x="721.679688" xlink:href="#DejaVuSans-49"/>
      <use x="785.302734" xlink:href="#DejaVuSans-55"/>
      <use x="848.925781" xlink:href="#DejaVuSans-56"/>
      <use x="912.548828" xlink:href="#DejaVuSans-51"/>
      <use x="976.171875" xlink:href="#DejaVuSans-50"/>
      <use x="1039.794922" xlink:href="#DejaVuSans-53"/>
      <use x="1103.417969" xlink:href="#DejaVuSans-53"/>
      <use x="1167.041016" xlink:href="#DejaVuSans-48"/>
      <use x="1230.664062" xlink:href="#DejaVuSans-49"/>
      <use x="1294.287109" xlink:href="#DejaVuSans-50"/>
      <use x="1357.910156" xlink:href="#DejaVuSans-50"/>
     </g>
    </g>
    <g id="line2d_29">
     <path d="M 225.595 137.092063 
L 245.595 137.092063 
" style="fill:none;stroke:#2ca02c;stroke-linecap:square;stroke-width:1.5;"/>
    </g>
    <g id="line2d_30"/>
    <g id="text_19">
     <!-- mu = -1.8652349908331654 -->
     <g transform="translate(253.595 140.592063)scale(0.1 -0.1)">
      <use xlink:href="#DejaVuSans-109"/>
      <use x="97.412109" xlink:href="#DejaVuSans-117"/>
      <use x="160.791016" xlink:href="#DejaVuSans-32"/>
      <use x="192.578125" xlink:href="#DejaVuSans-61"/>
      <use x="276.367188" xlink:href="#DejaVuSans-32"/>
      <use x="308.154297" xlink:href="#DejaVuSans-45"/>
      <use x="344.238281" xlink:href="#DejaVuSans-49"/>
      <use x="407.861328" xlink:href="#DejaVuSans-46"/>
      <use x="439.648438" xlink:href="#DejaVuSans-56"/>
      <use x="503.271484" xlink:href="#DejaVuSans-54"/>
      <use x="566.894531" xlink:href="#DejaVuSans-53"/>
      <use x="630.517578" xlink:href="#DejaVuSans-50"/>
      <use x="694.140625" xlink:href="#DejaVuSans-51"/>
      <use x="757.763672" xlink:href="#DejaVuSans-52"/>
      <use x="821.386719" xlink:href="#DejaVuSans-57"/>
      <use x="885.009766" xlink:href="#DejaVuSans-57"/>
      <use x="948.632812" xlink:href="#DejaVuSans-48"/>
      <use x="1012.255859" xlink:href="#DejaVuSans-56"/>
      <use x="1075.878906" xlink:href="#DejaVuSans-51"/>
      <use x="1139.501953" xlink:href="#DejaVuSans-51"/>
      <use x="1203.125" xlink:href="#DejaVuSans-49"/>
      <use x="1266.748047" xlink:href="#DejaVuSans-54"/>
      <use x="1330.371094" xlink:href="#DejaVuSans-53"/>
      <use x="1393.994141" xlink:href="#DejaVuSans-52"/>
     </g>
    </g>
    <g id="line2d_31">
     <path d="M 225.595 151.770188 
L 245.595 151.770188 
" style="fill:none;stroke:#d62728;stroke-linecap:square;stroke-width:1.5;"/>
    </g>
    <g id="line2d_32"/>
    <g id="text_20">
     <!-- mu = 0.3891515107280147 -->
     <g transform="translate(253.595 155.270188)scale(0.1 -0.1)">
      <use xlink:href="#DejaVuSans-109"/>
      <use x="97.412109" xlink:href="#DejaVuSans-117"/>
      <use x="160.791016" xlink:href="#DejaVuSans-32"/>
      <use x="192.578125" xlink:href="#DejaVuSans-61"/>
      <use x="276.367188" xlink:href="#DejaVuSans-32"/>
      <use x="308.154297" xlink:href="#DejaVuSans-48"/>
      <use x="371.777344" xlink:href="#DejaVuSans-46"/>
      <use x="403.564453" xlink:href="#DejaVuSans-51"/>
      <use x="467.1875" xlink:href="#DejaVuSans-56"/>
      <use x="530.810547" xlink:href="#DejaVuSans-57"/>
      <use x="594.433594" xlink:href="#DejaVuSans-49"/>
      <use x="658.056641" xlink:href="#DejaVuSans-53"/>
      <use x="721.679688" xlink:href="#DejaVuSans-49"/>
      <use x="785.302734" xlink:href="#DejaVuSans-53"/>
      <use x="848.925781" xlink:href="#DejaVuSans-49"/>
      <use x="912.548828" xlink:href="#DejaVuSans-48"/>
      <use x="976.171875" xlink:href="#DejaVuSans-55"/>
      <use x="1039.794922" xlink:href="#DejaVuSans-50"/>
      <use x="1103.417969" xlink:href="#DejaVuSans-56"/>
      <use x="1167.041016" xlink:href="#DejaVuSans-48"/>
      <use x="1230.664062" xlink:href="#DejaVuSans-49"/>
      <use x="1294.287109" xlink:href="#DejaVuSans-52"/>
      <use x="1357.910156" xlink:href="#DejaVuSans-55"/>
     </g>
    </g>
    <g id="line2d_33">
     <path d="M 225.595 166.448313 
L 245.595 166.448313 
" style="fill:none;stroke:#9467bd;stroke-linecap:square;stroke-width:1.5;"/>
    </g>
    <g id="line2d_34"/>
    <g id="text_21">
     <!-- mu = 1.459780257697219 -->
     <g transform="translate(253.595 169.948313)scale(0.1 -0.1)">
      <use xlink:href="#DejaVuSans-109"/>
      <use x="97.412109" xlink:href="#DejaVuSans-117"/>
      <use x="160.791016" xlink:href="#DejaVuSans-32"/>
      <use x="192.578125" xlink:href="#DejaVuSans-61"/>
      <use x="276.367188" xlink:href="#DejaVuSans-32"/>
      <use x="308.154297" xlink:href="#DejaVuSans-49"/>
      <use x="371.777344" xlink:href="#DejaVuSans-46"/>
      <use x="403.564453" xlink:href="#DejaVuSans-52"/>
      <use x="467.1875" xlink:href="#DejaVuSans-53"/>
      <use x="530.810547" xlink:href="#DejaVuSans-57"/>
      <use x="594.433594" xlink:href="#DejaVuSans-55"/>
      <use x="658.056641" xlink:href="#DejaVuSans-56"/>
      <use x="721.679688" xlink:href="#DejaVuSans-48"/>
      <use x="785.302734" xlink:href="#DejaVuSans-50"/>
      <use x="848.925781" xlink:href="#DejaVuSans-53"/>
      <use x="912.548828" xlink:href="#DejaVuSans-55"/>
      <use x="976.171875" xlink:href="#DejaVuSans-54"/>
      <use x="1039.794922" xlink:href="#DejaVuSans-57"/>
      <use x="1103.417969" xlink:href="#DejaVuSans-55"/>
      <use x="1167.041016" xlink:href="#DejaVuSans-50"/>
      <use x="1230.664062" xlink:href="#DejaVuSans-49"/>
      <use x="1294.287109" xlink:href="#DejaVuSans-57"/>
     </g>
    </g>
    <g id="line2d_35">
     <path d="M 225.595 181.126438 
L 245.595 181.126438 
" style="fill:none;stroke:#8c564b;stroke-linecap:square;stroke-width:1.5;"/>
    </g>
    <g id="line2d_36"/>
    <g id="text_22">
     <!-- mu = -0.3603192684147145 -->
     <g transform="translate(253.595 184.626438)scale(0.1 -0.1)">
      <use xlink:href="#DejaVuSans-109"/>
      <use x="97.412109" xlink:href="#DejaVuSans-117"/>
      <use x="160.791016" xlink:href="#DejaVuSans-32"/>
      <use x="192.578125" xlink:href="#DejaVuSans-61"/>
      <use x="276.367188" xlink:href="#DejaVuSans-32"/>
      <use x="308.154297" xlink:href="#DejaVuSans-45"/>
      <use x="344.238281" xlink:href="#DejaVuSans-48"/>
      <use x="407.861328" xlink:href="#DejaVuSans-46"/>
      <use x="439.648438" xlink:href="#DejaVuSans-51"/>
      <use x="503.271484" xlink:href="#DejaVuSans-54"/>
      <use x="566.894531" xlink:href="#DejaVuSans-48"/>
      <use x="630.517578" xlink:href="#DejaVuSans-51"/>
      <use x="694.140625" xlink:href="#DejaVuSans-49"/>
      <use x="757.763672" xlink:href="#DejaVuSans-57"/>
      <use x="821.386719" xlink:href="#DejaVuSans-50"/>
      <use x="885.009766" xlink:href="#DejaVuSans-54"/>
      <use x="948.632812" xlink:href="#DejaVuSans-56"/>
      <use x="1012.255859" xlink:href="#DejaVuSans-52"/>
      <use x="1075.878906" xlink:href="#DejaVuSans-49"/>
      <use x="1139.501953" xlink:href="#DejaVuSans-52"/>
      <use x="1203.125" xlink:href="#DejaVuSans-55"/>
      <use x="1266.748047" xlink:href="#DejaVuSans-49"/>
      <use x="1330.371094" xlink:href="#DejaVuSans-52"/>
      <use x="1393.994141" xlink:href="#DejaVuSans-53"/>
     </g>
    </g>
    <g id="line2d_37">
     <path d="M 225.595 195.804563 
L 245.595 195.804563 
" style="fill:none;stroke:#e377c2;stroke-linecap:square;stroke-width:1.5;"/>
    </g>
    <g id="line2d_38"/>
    <g id="text_23">
     <!-- mu = -0.4526924087805008 -->
     <g transform="translate(253.595 199.304563)scale(0.1 -0.1)">
      <use xlink:href="#DejaVuSans-109"/>
      <use x="97.412109" xlink:href="#DejaVuSans-117"/>
      <use x="160.791016" xlink:href="#DejaVuSans-32"/>
      <use x="192.578125" xlink:href="#DejaVuSans-61"/>
      <use x="276.367188" xlink:href="#DejaVuSans-32"/>
      <use x="308.154297" xlink:href="#DejaVuSans-45"/>
      <use x="344.238281" xlink:href="#DejaVuSans-48"/>
      <use x="407.861328" xlink:href="#DejaVuSans-46"/>
      <use x="439.648438" xlink:href="#DejaVuSans-52"/>
      <use x="503.271484" xlink:href="#DejaVuSans-53"/>
      <use x="566.894531" xlink:href="#DejaVuSans-50"/>
      <use x="630.517578" xlink:href="#DejaVuSans-54"/>
      <use x="694.140625" xlink:href="#DejaVuSans-57"/>
      <use x="757.763672" xlink:href="#DejaVuSans-50"/>
      <use x="821.386719" xlink:href="#DejaVuSans-52"/>
      <use x="885.009766" xlink:href="#DejaVuSans-48"/>
      <use x="948.632812" xlink:href="#DejaVuSans-56"/>
      <use x="1012.255859" xlink:href="#DejaVuSans-55"/>
      <use x="1075.878906" xlink:href="#DejaVuSans-56"/>
      <use x="1139.501953" xlink:href="#DejaVuSans-48"/>
      <use x="1203.125" xlink:href="#DejaVuSans-53"/>
      <use x="1266.748047" xlink:href="#DejaVuSans-48"/>
      <use x="1330.371094" xlink:href="#DejaVuSans-48"/>
      <use x="1393.994141" xlink:href="#DejaVuSans-56"/>
     </g>
    </g>
    <g id="line2d_39">
     <path d="M 225.595 210.482687 
L 245.595 210.482687 
" style="fill:none;stroke:#7f7f7f;stroke-linecap:square;stroke-width:1.5;"/>
    </g>
    <g id="line2d_40"/>
    <g id="text_24">
     <!-- mu = 1.3758286362054974 -->
     <g transform="translate(253.595 213.982687)scale(0.1 -0.1)">
      <use xlink:href="#DejaVuSans-109"/>
      <use x="97.412109" xlink:href="#DejaVuSans-117"/>
      <use x="160.791016" xlink:href="#DejaVuSans-32"/>
      <use x="192.578125" xlink:href="#DejaVuSans-61"/>
      <use x="276.367188" xlink:href="#DejaVuSans-32"/>
      <use x="308.154297" xlink:href="#DejaVuSans-49"/>
      <use x="371.777344" xlink:href="#DejaVuSans-46"/>
      <use x="403.564453" xlink:href="#DejaVuSans-51"/>
      <use x="467.1875" xlink:href="#DejaVuSans-55"/>
      <use x="530.810547" xlink:href="#DejaVuSans-53"/>
      <use x="594.433594" xlink:href="#DejaVuSans-56"/>
      <use x="658.056641" xlink:href="#DejaVuSans-50"/>
      <use x="721.679688" xlink:href="#DejaVuSans-56"/>
      <use x="785.302734" xlink:href="#DejaVuSans-54"/>
      <use x="848.925781" xlink:href="#DejaVuSans-51"/>
      <use x="912.548828" xlink:href="#DejaVuSans-54"/>
      <use x="976.171875" xlink:href="#DejaVuSans-50"/>
      <use x="1039.794922" xlink:href="#DejaVuSans-48"/>
      <use x="1103.417969" xlink:href="#DejaVuSans-53"/>
      <use x="1167.041016" xlink:href="#DejaVuSans-52"/>
      <use x="1230.664062" xlink:href="#DejaVuSans-57"/>
      <use x="1294.287109" xlink:href="#DejaVuSans-55"/>
      <use x="1357.910156" xlink:href="#DejaVuSans-52"/>
     </g>
    </g>
    <g id="line2d_41">
     <path d="M 225.595 225.160813 
L 245.595 225.160813 
" style="fill:none;stroke:#bcbd22;stroke-linecap:square;stroke-width:1.5;"/>
    </g>
    <g id="line2d_42"/>
    <g id="text_25">
     <!-- mu = -0.14592734152972944 -->
     <g transform="translate(253.595 228.660813)scale(0.1 -0.1)">
      <use xlink:href="#DejaVuSans-109"/>
      <use x="97.412109" xlink:href="#DejaVuSans-117"/>
      <use x="160.791016" xlink:href="#DejaVuSans-32"/>
      <use x="192.578125" xlink:href="#DejaVuSans-61"/>
      <use x="276.367188" xlink:href="#DejaVuSans-32"/>
      <use x="308.154297" xlink:href="#DejaVuSans-45"/>
      <use x="344.238281" xlink:href="#DejaVuSans-48"/>
      <use x="407.861328" xlink:href="#DejaVuSans-46"/>
      <use x="439.648438" xlink:href="#DejaVuSans-49"/>
      <use x="503.271484" xlink:href="#DejaVuSans-52"/>
      <use x="566.894531" xlink:href="#DejaVuSans-53"/>
      <use x="630.517578" xlink:href="#DejaVuSans-57"/>
      <use x="694.140625" xlink:href="#DejaVuSans-50"/>
      <use x="757.763672" xlink:href="#DejaVuSans-55"/>
      <use x="821.386719" xlink:href="#DejaVuSans-51"/>
      <use x="885.009766" xlink:href="#DejaVuSans-52"/>
      <use x="948.632812" xlink:href="#DejaVuSans-49"/>
      <use x="1012.255859" xlink:href="#DejaVuSans-53"/>
      <use x="1075.878906" xlink:href="#DejaVuSans-50"/>
      <use x="1139.501953" xlink:href="#DejaVuSans-57"/>
      <use x="1203.125" xlink:href="#DejaVuSans-55"/>
      <use x="1266.748047" xlink:href="#DejaVuSans-50"/>
      <use x="1330.371094" xlink:href="#DejaVuSans-57"/>
      <use x="1393.994141" xlink:href="#DejaVuSans-52"/>
      <use x="1457.617188" xlink:href="#DejaVuSans-52"/>
     </g>
    </g>
    <g id="line2d_43">
     <path d="M 225.595 239.838937 
L 245.595 239.838937 
" style="fill:none;stroke:#17becf;stroke-linecap:square;stroke-width:1.5;"/>
    </g>
    <g id="line2d_44"/>
    <g id="text_26">
     <!-- mu = -1.4944530725036216 -->
     <g transform="translate(253.595 243.338937)scale(0.1 -0.1)">
      <use xlink:href="#DejaVuSans-109"/>
      <use x="97.412109" xlink:href="#DejaVuSans-117"/>
      <use x="160.791016" xlink:href="#DejaVuSans-32"/>
      <use x="192.578125" xlink:href="#DejaVuSans-61"/>
      <use x="276.367188" xlink:href="#DejaVuSans-32"/>
      <use x="308.154297" xlink:href="#DejaVuSans-45"/>
      <use x="344.238281" xlink:href="#DejaVuSans-49"/>
      <use x="407.861328" xlink:href="#DejaVuSans-46"/>
      <use x="439.648438" xlink:href="#DejaVuSans-52"/>
      <use x="503.271484" xlink:href="#DejaVuSans-57"/>
      <use x="566.894531" xlink:href="#DejaVuSans-52"/>
      <use x="630.517578" xlink:href="#DejaVuSans-52"/>
      <use x="694.140625" xlink:href="#DejaVuSans-53"/>
      <use x="757.763672" xlink:href="#DejaVuSans-51"/>
      <use x="821.386719" xlink:href="#DejaVuSans-48"/>
      <use x="885.009766" xlink:href="#DejaVuSans-55"/>
      <use x="948.632812" xlink:href="#DejaVuSans-50"/>
      <use x="1012.255859" xlink:href="#DejaVuSans-53"/>
      <use x="1075.878906" xlink:href="#DejaVuSans-48"/>
      <use x="1139.501953" xlink:href="#DejaVuSans-51"/>
      <use x="1203.125" xlink:href="#DejaVuSans-54"/>
      <use x="1266.748047" xlink:href="#DejaVuSans-50"/>
      <use x="1330.371094" xlink:href="#DejaVuSans-49"/>
      <use x="1393.994141" xlink:href="#DejaVuSans-54"/>
     </g>
    </g>
   </g>
  </g>
 </g>
 <defs>
  <clipPath id="p1470d81907">
   <rect height="266.112" width="357.12" x="57.6" y="41.472"/>
  </clipPath>
 </defs>
</svg>
